<svg id="Layer_1" data-name="Layer 1" xmlns="http://www.w3.org/2000/svg" viewBox="0 0 246.17 309.29"><defs><style>.cls-1{fill:#878787;}</style></defs><path class="cls-1" d="M218.65,0H27.53A27.54,27.54,0,0,0,0,27.53V281.77a27.53,27.53,0,0,0,27.53,27.52H218.65a27.52,27.52,0,0,0,27.52-27.52V27.53A27.53,27.53,0,0,0,218.65,0Zm2.91,210.91H24.62v-180H221.56Z"/><path d="M123.15,30.93h93.26c.65,0,1.3,0,2,0A3.22,3.22,0,0,1,221.53,34c0,.48,0,1,0,1.46V162.36c0,3.54-1,4.59-4.52,4.59H146.89c-3,0-3.06,0-2.79,2.89.58,6.3,1.75,12.46,5.16,17.95A12.14,12.14,0,0,0,160.51,194c5.32-.1,10.63-.06,16-.09a3.22,3.22,0,0,1,3.54,3.36q0,5-.09,9.92c0,2.63-1.14,3.77-3.77,3.77H70c-2.62,0-3.74-1.15-3.77-3.77,0-3.31-.07-6.61-.08-9.92a3.26,3.26,0,0,1,3.53-3.4c5.32,0,10.63,0,16,.12,5.49.13,9.29-2.47,11.86-7.1,3.23-5.83,4.22-12.25,4.7-18.77,0-.34-.55-.9-1-1.06a4.53,4.53,0,0,0-1.61-.06H29.34c-3.73,0-4.72-1-4.72-4.72V35.69a15.11,15.11,0,0,1,0-1.78,3.2,3.2,0,0,1,3.13-3c.65,0,1.3,0,1.95,0Zm.1,6.25H33.58c-2.53,0-2.54,0-2.54,2.47V157.89c0,2.64,0,2.65,2.7,2.65H212.43c2.7,0,2.7,0,2.7-2.65V39.82c0-2.63,0-2.64-2.7-2.64Zm-.15,167.48c16.22,0,32.44,0,48.65,0,1.71,0,2-.76,1.93-2.17s0-2.43-1.9-2.38c-3.84.12-7.7,0-11.55.05-7.7.19-13.11-3.46-16.88-9.89-3.92-6.67-5.14-14.09-5.73-21.64-.1-1.36-.57-1.73-1.86-1.73q-12.69.06-25.38,0c-1.34,0-1.73.45-1.82,1.77a54.09,54.09,0,0,1-4,18.17c-3.65,8.34-9.67,13.87-19.83,13.33-3.51-.19-7.05,0-10.57,0a2,2,0,0,0-1.5.6A2.46,2.46,0,0,0,75,204.66Z"/><path d="M123.08,42.39h81.69c3.85,0,4.76.92,4.76,4.82V150.8c0,3.66-1,4.68-4.6,4.68q-81.85,0-163.7,0c-3.56,0-4.59-1-4.59-4.53V46.87c0-3.51,1-4.48,4.59-4.48Zm.11,6.42H45.24c-2.34,0-2.34,0-2.34,2.33q0,47.82,0,95.64c0,2.29,0,2.29,2.36,2.29H200.85c2.41,0,2.42,0,2.42-2.4V51.2c0-2.38,0-2.39-2.44-2.39Z"/><path d="M31.09,230.44h3.39v24.13H31.09ZM32.83,242h7.72a3.64,3.64,0,0,0,1.93-.51A3.44,3.44,0,0,0,43.76,240a5.42,5.42,0,0,0,0-4.37,3.47,3.47,0,0,0-1.28-1.47,3.55,3.55,0,0,0-1.93-.52H32.83v-3.22h7.61a7.61,7.61,0,0,1,3.8.92,6.45,6.45,0,0,1,2.55,2.6,8.81,8.81,0,0,1,0,7.76,6.46,6.46,0,0,1-2.55,2.58,7.71,7.71,0,0,1-3.8.91H32.83Z"/><path d="M51.92,230.44h3.39v24.13H51.92ZM54,241.08h13.4v3.22H54Zm11.61-10.64H69v24.13H65.64Z"/><path d="M78.54,253.72a7.53,7.53,0,0,1-3-3.12,9.87,9.87,0,0,1-1.06-4.67v-6.84a9.91,9.91,0,0,1,1.06-4.68,7.53,7.53,0,0,1,3-3.12,9.53,9.53,0,0,1,8.89,0,7.53,7.53,0,0,1,3,3.12,9.91,9.91,0,0,1,1.06,4.68v6.84a9.87,9.87,0,0,1-1.06,4.67,7.53,7.53,0,0,1-3,3.12,9.53,9.53,0,0,1-8.89,0Zm7.08-2.9a4.61,4.61,0,0,0,1.76-1.92A6.31,6.31,0,0,0,88,246V239a6.31,6.31,0,0,0-.62-2.86,4.59,4.59,0,0,0-1.76-1.91,5.45,5.45,0,0,0-5.27,0,4.59,4.59,0,0,0-1.76,1.91A6.31,6.31,0,0,0,78,239V246a6.31,6.31,0,0,0,.62,2.86,4.61,4.61,0,0,0,1.76,1.92,5.52,5.52,0,0,0,5.27,0Z"/><path d="M93.63,230.44h17v3.22h-17Zm6.82,2h3.39v22.16h-3.39Z"/><path d="M116.85,253.72a7.66,7.66,0,0,1-3-3.12,10,10,0,0,1-1.05-4.67v-6.84a10,10,0,0,1,1.05-4.68,7.66,7.66,0,0,1,3-3.12,9.55,9.55,0,0,1,8.9,0,7.6,7.6,0,0,1,3,3.12,10,10,0,0,1,1.06,4.68v6.84a10,10,0,0,1-1.06,4.67,7.6,7.6,0,0,1-3,3.12,9.55,9.55,0,0,1-8.9,0Zm7.08-2.9a4.49,4.49,0,0,0,1.76-1.92,6.18,6.18,0,0,0,.63-2.86V239a6.18,6.18,0,0,0-.63-2.86,4.46,4.46,0,0,0-1.76-1.91,5,5,0,0,0-2.63-.68,5.07,5.07,0,0,0-2.63.68,4.52,4.52,0,0,0-1.76,1.91,6.31,6.31,0,0,0-.62,2.86V246a6.31,6.31,0,0,0,.62,2.86,4.55,4.55,0,0,0,1.76,1.92,5.17,5.17,0,0,0,2.63.67A5.12,5.12,0,0,0,123.93,250.82Z"/><path d="M138.55,254.49a12.47,12.47,0,0,1-2.91-1,12.69,12.69,0,0,1-2.53-1.66l2.1-2.59a9.79,9.79,0,0,0,3,1.79,10.54,10.54,0,0,0,3.6.6,7.22,7.22,0,0,0,4.07-1,3.09,3.09,0,0,0,1.45-2.74v0a2.89,2.89,0,0,0-.66-2,3.87,3.87,0,0,0-1.69-1.09,18.71,18.71,0,0,0-2.68-.66l-.11,0h-.11l-.25-.05a26.13,26.13,0,0,1-3.94-.94,5.61,5.61,0,0,1-2.6-1.91,6.3,6.3,0,0,1-1.08-3.94v0a7,7,0,0,1,1-3.83,6.29,6.29,0,0,1,2.93-2.41,12.73,12.73,0,0,1,7.18-.55,12.86,12.86,0,0,1,2.47.84,14.8,14.8,0,0,1,2.4,1.4l-1.93,2.69a11.57,11.57,0,0,0-2.74-1.52,7.86,7.86,0,0,0-2.75-.51,6.51,6.51,0,0,0-3.85,1,3.26,3.26,0,0,0-1.37,2.8v0a2.68,2.68,0,0,0,.71,2,4.38,4.38,0,0,0,1.76,1.05,27,27,0,0,0,2.93.71l.12,0,.13,0,.18,0,.18,0a20,20,0,0,1,3.67,1.06,5.8,5.8,0,0,1,2.45,2,6.26,6.26,0,0,1,1,3.74v0a6.61,6.61,0,0,1-1.05,3.78,6.43,6.43,0,0,1-3,2.39,12.46,12.46,0,0,1-4.79.82A15.92,15.92,0,0,1,138.55,254.49Z"/><path d="M155.2,230.44h3.39v24.13H155.2Zm2.11,10.64h13.4v3.22h-13.4Zm11.6-10.64h3.39v24.13h-3.39Z"/><path d="M181.81,253.72a7.66,7.66,0,0,1-3-3.12,10,10,0,0,1-1.05-4.67v-6.84a10,10,0,0,1,1.05-4.68,7.66,7.66,0,0,1,3-3.12,9.55,9.55,0,0,1,8.9,0,7.53,7.53,0,0,1,3,3.12,9.91,9.91,0,0,1,1.06,4.68v6.84a9.87,9.87,0,0,1-1.06,4.67,7.53,7.53,0,0,1-3,3.12,9.55,9.55,0,0,1-8.9,0Zm7.09-2.9a4.61,4.61,0,0,0,1.76-1.92,6.31,6.31,0,0,0,.62-2.86V239a6.31,6.31,0,0,0-.62-2.86,4.59,4.59,0,0,0-1.76-1.91,5.45,5.45,0,0,0-5.27,0,4.52,4.52,0,0,0-1.76,1.91,6.31,6.31,0,0,0-.62,2.86V246a6.31,6.31,0,0,0,.62,2.86,4.55,4.55,0,0,0,1.76,1.92,5.52,5.52,0,0,0,5.27,0Z"/><path d="M199.89,230.44h3.39v24.13h-3.39ZM201.64,242h7.72a3.58,3.58,0,0,0,1.92-.51,3.46,3.46,0,0,0,1.29-1.46,5.42,5.42,0,0,0,0-4.37,3.41,3.41,0,0,0-3.21-2h-7.72v-3.22h7.6a7.56,7.56,0,0,1,3.8.92,6.32,6.32,0,0,1,2.55,2.6,8.81,8.81,0,0,1,0,7.76A6.34,6.34,0,0,1,213,244.3a7.66,7.66,0,0,1-3.8.91h-7.6Z"/></svg>