<svg id="Layer_1" data-name="Layer 1" xmlns="http://www.w3.org/2000/svg" viewBox="0 0 246.17 309.29"><defs><style>.cls-1{fill:#878787;}.cls-2{fill:#010101;}</style></defs><path class="cls-1" d="M218.65,0H27.53A27.54,27.54,0,0,0,0,27.53V281.77a27.53,27.53,0,0,0,27.53,27.52H218.65a27.52,27.52,0,0,0,27.52-27.52V27.53A27.53,27.53,0,0,0,218.65,0Zm2.91,210.91H24.62v-180H221.56Z"/><path d="M36,253.41H33v-21.3h3Z"/><path d="M41.3,232.11h3v21.3h-3Zm1.49,18.45H55v2.85H42.79Z"/><path d="M58.49,232.11h3v21.3h-3ZM60,250.56H72.18v2.85H60Z"/><path d="M78.25,252.69a6.09,6.09,0,0,1-2.56-2.7,9.71,9.71,0,0,1-.88-4.29V232.11h3V245.8A5.14,5.14,0,0,0,79,249.41a4.27,4.27,0,0,0,3.31,1.27,4.33,4.33,0,0,0,3.34-1.27,5.14,5.14,0,0,0,1.18-3.61V232.11h3V245.7A9.57,9.57,0,0,1,88.9,250a6,6,0,0,1-2.56,2.7,9.17,9.17,0,0,1-8.09,0Z"/><path d="M97.66,253.33a11,11,0,0,1-2.57-.88A11.12,11.12,0,0,1,92.86,251l1.86-2.29a8.42,8.42,0,0,0,2.68,1.59,9.39,9.39,0,0,0,3.18.52,6.42,6.42,0,0,0,3.59-.85,2.76,2.76,0,0,0,1.27-2.43h0a2.57,2.57,0,0,0-.58-1.77,3.55,3.55,0,0,0-1.49-1,17.3,17.3,0,0,0-2.37-.57l-.09,0h-.1l-.22-.05a23.76,23.76,0,0,1-3.48-.82,4.93,4.93,0,0,1-2.29-1.69,5.57,5.57,0,0,1-.95-3.48h0a6.19,6.19,0,0,1,.89-3.38,5.59,5.59,0,0,1,2.58-2.13,10.28,10.28,0,0,1,4.09-.73,10,10,0,0,1,2.25.25,10.79,10.79,0,0,1,2.18.74,12.77,12.77,0,0,1,2.12,1.23l-1.7,2.38a9.49,9.49,0,0,0-2.43-1.34,6.86,6.86,0,0,0-2.42-.45,5.7,5.7,0,0,0-3.39.87A2.86,2.86,0,0,0,96.83,238h0a2.36,2.36,0,0,0,.62,1.73,3.79,3.79,0,0,0,1.55.93,24.77,24.77,0,0,0,2.59.63l.11,0,.11,0,.16,0,.16,0a16.63,16.63,0,0,1,3.23.94,5,5,0,0,1,2.17,1.75,5.53,5.53,0,0,1,.87,3.3v0a5.89,5.89,0,0,1-.92,3.33,5.8,5.8,0,0,1-2.67,2.11,11.13,11.13,0,0,1-4.23.73A13.7,13.7,0,0,1,97.66,253.33Z"/><path d="M109.72,232.11h15V235h-15Zm6,1.74h3v19.56h-3Z"/><path d="M127.68,232.09h3v21.32h-3Zm1.3,9.47h7.27a2.85,2.85,0,0,0,1.51-.41,2.77,2.77,0,0,0,1-1.17,4.48,4.48,0,0,0,0-3.47,2.69,2.69,0,0,0-2.53-1.58H129v-2.84h7.15a6.81,6.81,0,0,1,3.25.76,5.31,5.31,0,0,1,2.16,2.17,6.47,6.47,0,0,1,.77,3.22,6.59,6.59,0,0,1-.77,3.23,5.42,5.42,0,0,1-2.18,2.17,6.73,6.73,0,0,1-3.23.76H129Zm5.8,2.18,3-.68,5.45,10.35h-3.55Z"/><path d="M152.3,232.11h2.55l7.85,21.3h-3.22l-5.9-17.19-5.91,17.19h-3.22Zm-4.23,13.78h11.21v2.84H148.07Z"/><path d="M162.41,232.11h15V235h-15Zm6,1.74h3v19.56h-3Z"/><path d="M182.9,252.65a6.71,6.71,0,0,1-2.63-2.75,8.79,8.79,0,0,1-.93-4.13v-6a8.82,8.82,0,0,1,.93-4.13,6.71,6.71,0,0,1,2.63-2.75,8.43,8.43,0,0,1,7.85,0,6.64,6.64,0,0,1,2.63,2.75,8.82,8.82,0,0,1,.93,4.13v6a8.79,8.79,0,0,1-.93,4.13,6.64,6.64,0,0,1-2.63,2.75,8.35,8.35,0,0,1-7.85,0Zm6.25-2.56a4,4,0,0,0,1.55-1.69,5.47,5.47,0,0,0,.55-2.52v-6.24a5.51,5.51,0,0,0-.55-2.53,3.88,3.88,0,0,0-1.55-1.68,4.79,4.79,0,0,0-4.64,0,4,4,0,0,0-1.56,1.68,5.64,5.64,0,0,0-.54,2.53v6.24a5.6,5.6,0,0,0,.54,2.52,4.05,4.05,0,0,0,1.56,1.69,4.86,4.86,0,0,0,4.64,0Z"/><path d="M198.86,232.09h3v21.32h-3Zm1.3,9.47h7.26a2.82,2.82,0,0,0,1.51-.41,2.77,2.77,0,0,0,1-1.17,4.36,4.36,0,0,0,0-3.47,2.66,2.66,0,0,0-2.53-1.58h-7.26v-2.84h7.15a6.74,6.74,0,0,1,3.24.76,5.34,5.34,0,0,1,2.17,2.17,6.58,6.58,0,0,1,.77,3.22,6.49,6.49,0,0,1-.78,3.23,5.34,5.34,0,0,1-2.17,2.17,6.76,6.76,0,0,1-3.23.76h-7.15Zm5.8,2.18,3-.68,5.45,10.35h-3.54Z"/><path class="cls-2" d="M178.62,40c2.18-2.44,4.27-5,6.55-7.28s3.53-2.28,5.79-.06q6.56,6.47,13,13.07c2.31,2.38,2.23,3.6-.15,6-1.78,1.84-3.61,3.67-5.48,5.45-1.08,1-1.59,1.91-.29,3.21,1.85,1.85,1.44,3.75-.29,5.46-3.54,3.48-7.12,6.9-10.65,10.37L120,142.43c-12.84,12.67-25.66,25.36-38.6,37.93-1.38,1.34-3.49,1.93-5.29,2.81-3.52,1.71-7,3.38-10.61,5.07.07.28.14.59.2.85h3.09l40.74.1a26.89,26.89,0,0,1,3,.1c2.92.39,3.95,2.08,3,4.81-.41,1.11-1,2.17-1.41,3.27-.91,2.29-1,4.42,1,6.26s4.17,1.52,6.29.28c7-4.12,14-8.28,21-12.42,1-.6,2-1.59,3.1-1.71,1.84-.22,4.17-.5,5.5.4s1.89,3.14,1.87,4.79c0,2.54,0,4.83,2.38,6.22s4.55.39,6.55-1.14c4.17-3.18,8.34-6.39,12.67-9.39a8.94,8.94,0,0,1,4.6-1.57c6.55-.16,13.1,0,19.65,0,2,0,4,.21,4.17,2.74.13,2.72-2,3.13-4.12,3.13-4.66,0-9.33.13-14-.23-3.76-.3-6.93.32-9.88,2.86s-6.44,4.64-9.5,7.15c-8.11,6.67-18.45,1.26-18.66-7.59,0-.25-.23-.5-.5-1.05l-10,5.88c-3.92,2.33-7.85,4.64-11.75,7-4.12,2.47-8.24,2.74-12.28-.07s-5.27-6.75-4.48-11.47c.1-.56.09-1.14.15-2.05-1.39-.08-2.63-.23-3.88-.23-14.67-.05-29.34-.06-44-.14-3.17,0-6.33-.23-9.5-.4-8.05-.46-12.29-7.55-8.82-14.81,2.76-5.81,6.45-11.31,8.34-17.41,3.38-11,13-16.53,20-24.31,4.69-5.22,10-9.88,15-14.82l67.69-66.88c5.57-5.5,11.19-11,16.78-16.43C173.34,36.25,173.53,36.23,178.62,40ZM78.27,175.15c.11-.1.8-.64,1.42-1.25l24.82-24.37q36.81-36.33,73.64-72.64c1.84-1.79,2-2.93.06-4.77-4.32-4.11-8.4-8.42-12.58-12.65-3.76-3.79-3.75-3.78-7.67.09l-79.1,78.15C73,143.56,67,149.33,61.07,155.23c-.63.64-1.19,2.5-.84,2.84C66.12,163.8,72.11,169.38,78.27,175.15Zm-6.63,3.46L56,164.13c-2.93,6-6.23,12.61-9.24,19.36a4.25,4.25,0,0,0,1,3.92c1.13.85,3.35,1.41,4.53.86C58.64,185.35,64.83,182,71.64,178.61Zm101.72-134c-.59.56-1.46,1.33-2.29,2.15-4.92,4.85-4.91,4.86-.13,9.69l14.22,14.35c2.18-2.44,4.17-4.59,6-6.89a2.28,2.28,0,0,0-.21-2.19C185.2,56,179.39,50.45,173.36,44.65ZM198.12,49l-11-10.88c-1.26,1.51-2.76,3.21-4.12,5a1.94,1.94,0,0,0-.17,1.79c3.09,3.26,6.27,6.43,9.52,9.7,2.18-2.18,4-4,5.72-5.64Z"/></svg>