<?xml version="1.0" encoding="UTF-8" standalone="no"?>
<!-- Created with Inkscape (http://www.inkscape.org/) -->
<svg xmlns:dc="http://purl.org/dc/elements/1.1/" xmlns:cc="http://creativecommons.org/ns#" xmlns:rdf="http://www.w3.org/1999/02/22-rdf-syntax-ns#" xmlns:svg="http://www.w3.org/2000/svg" xmlns="http://www.w3.org/2000/svg" xmlns:sodipodi="http://sodipodi.sourceforge.net/DTD/sodipodi-0.dtd" xmlns:inkscape="http://www.inkscape.org/namespaces/inkscape" id="svg4271" sodipodi:docname="sketchpad-still-life.svg" inkscape:export-filename="/home/nathan/images/svg/sketchpad-still-life.png" viewBox="0 0 246.86 185.84" sodipodi:version="0.32" inkscape:export-xdpi="72.639999" version="1.0" inkscape:output_extension="org.inkscape.output.svg.inkscape" inkscape:export-ydpi="72.639999" inkscape:version="0.48.2 r9819">
  <defs id="defs4273">
    <pattern id="pattern11717" width="70.923691" patternUnits="userSpaceOnUse" patternTransform="matrix(.19314 -.021665 .049839 .18998 242.52 856.83)" height="48.60245">
      <g id="g11647" transform="translate(81.287 -300.62)">
        <rect id="rect11649" style="fill:#b4b4b4" height="48.578" width="70.924" y="300.63" x="-81.287"/>
        <path id="path11651" style="fill-opacity:.22414;fill:#000000" d="m-61.594 300.63c-2.173 3.1-3.772 6.74-4 9.72-0.357 4.68 7.341 9.66 7.313 14.41-0.026 4.48-8.052 9.01-7.469 13.28 0.465 3.4 2.642 7.72 5.469 11.19h34.906c1.55-3.43 2.468-7.49 2.531-10.53 0.099-4.74-6.964-9.4-6.937-14.1 0.027-4.8 7.65-10.35 7.125-14.4-0.392-3.02-7.972-3.71-9.906-6.82-0.444-0.71-0.581-1.68-0.626-2.75h-28.406z"/>
        <path id="path11653" style="fill-rule:evenodd;fill:#000000;fill-opacity:.22414" d="m-60.469 316.54c-4.112 0.09-8.857 1.27-11.25 2.87-1.759 1.18 1.692 6.23 0.469 8.25-1.485 2.46-8.718 3.06-8.594 5.19 0.171 2.92 6.856 6.25 9.469 9.97 1.322 1.88 2.309 4.12 3.25 6.37h9.187c-1.034-1.52-1.86-3.13-2.281-4.78-1.025-4.01-1.172-9.69 0.625-13.03 1.385-2.57 8.251-2.39 8.906-4.69 0.699-2.45-2.067-8.6-4.843-9.56-1.323-0.46-3.068-0.64-4.938-0.59z"/>
        <path id="path11655" sodipodi:nodetypes="cssssccssssssccsssssc" style="fill-opacity:.22414;fill:#000000" d="m-31.09 319.26c-5.104-0.1-10.17-6.93-15.219-6.17-1.753 0.27-4.07-1.3-5.812-0.97-4.174 0.8-8.084 6.07-12.156 7.29-2.423 0.72-6.029-0.43-8.438 0.34-2.498 0.8-6.868 3.65-8.562 8.57v12.63c2.956-5.13 4.066-12.64 9.062-12.64 2.507 0 2.403 6.24 4.844 6.81 4.929 1.16 9.9-8.69 14.906-7.93 6.147 0.93 8.498 13.38 14.563 14.75 4.331 0.98 9.506-5.33 13.937-5.03 2.84 0.19 5.602 4.13 8.438 4.37 1.479 0.13 3.344-0.01 5.156-0.4v-12.57c-1.357 2.14-2.676 4.16-4.031 3.25-1.061-0.71 1.458-2.8 1.281-4.06-0.243-1.73-2.244-3.39-3.219-4.84-1.597-2.39-4.221 8.46-5.344 5.82-0.816-1.92-4.806-6.99-6.156-7.44-1.052-0.34-2.141-1.75-3.25-1.78z"/>
        <path id="path11657" sodipodi:nodetypes="cssssssssss" style="fill-rule:evenodd;fill:#000000;fill-opacity:.22414" d="m-76.591 304.2c-0.24 1.36-2.182 2.96-1.943 4.21 0.247 1.29 3.42 2.06 3.4 3.4-0.034 2.28-3.798 5.21-3.562 7.44 0.196 1.87 2.91 3.98 4.858 4.86 1.884 0.85 5.51 1.65 6.639 0.33 1.947-2.29 3.8-8.13 2.59-11.18-1.489-3.75-7.518-5.92-10.687-9.23-0.555-0.58-0.085-2.23-0.485-2.43-0.356-0.17-1.626 0.8-1.782 1.3-0.114 0.37 1.056 0.82 0.972 1.3z"/>
        <path id="path11659" style="fill-rule:evenodd;fill:#000000;fill-opacity:.22414" d="m-67.125 300.62c1.545 3.71 2.982 7.45 5.594 9.72 2.949 2.57 9.869 0.4 12.625 2.6 1.776 1.41-0.98 8.04 0.968 8.25 4.636 0.49 13.133-6.61 18.782-6.16 3.309 0.26 5.916 7.95 8.094 8.28 1.332 0.21 1.113-4.78 2.437-6.65 1.644-2.33 6.099-3.66 6.469-5.97 0.39-2.44-2.256-8.41-4.188-8.28-2.87 0.19-6.475 8.79-10.218 9.25-3.819 0.46-8.56-6.37-12.469-6.5-2.456-0.09-4.287 5.76-6.625 5.84-2.568 0.09-5.897-3.06-8.094-5.34-1.447-1.51-2.956-3.22-4.188-5.04h-9.187z"/>
        <path id="path11661" sodipodi:nodetypes="csssssss" style="fill-rule:evenodd;fill:#000000;fill-opacity:.22414" d="m-38.215 338.69c-0.502 2.1 0.336 6.24 2.429 6.8 2.531 0.67 4.021-5.62 6.639-5.67 2.109-0.04 3.41 4.61 5.506 4.37 2.85-0.32 7.903-5.31 5.991-7.45-2.839-3.17-7.834 8.58-11.983 7.61-2.994-0.69-2.295-8.34-5.343-8.74-1.329-0.18-2.928 1.77-3.239 3.08z"/>
        <path id="path11663" sodipodi:nodetypes="czzzzzzzzzz" style="fill-rule:evenodd;fill:#000000;fill-opacity:.22414" d="m-72.057 346.3c0.324-0.41 5.786-12.4 10.525-13.44 4.739-1.05 8.671 7.53 13.602 6.96s9.765-10.25 13.602-11.5c3.836-1.25 8.704 4.13 9.068 0.65 0.363-3.48-10.945-3.36-14.088-1.94-3.143 1.41-2.477 5.44-4.858 7.28-2.38 1.85-7.399 3.93-10.687 3.73s-5.867-5.35-9.554-4.7c-3.686 0.66-9.82 7.7-9.877 10.37-0.057 2.66 1.943 2.99 2.267 2.59z"/>
        <path id="path11665" sodipodi:nodetypes="cscc" style="fill-rule:evenodd;fill:#000000;fill-opacity:.22414" d="m-77.725 304.68c13.44 10.58 27.339 19.2 40.32 31.74 6.523 6.3 16.948 6.91 25.422 10.36-25.638-9.66-42.532-31.95-65.742-42.1z"/>
        <path id="path11667" style="fill-rule:evenodd;fill:#000000;fill-opacity:.22414" d="m-81.281 322.09v1.38c10.49 8.59 26.875 22.34 26.875 22.34l6.812 2.44-22.844-17-10.843-9.16z"/>
        <path id="path11669" style="fill-rule:evenodd;fill:#000000;fill-opacity:.22414" d="m-26.253 308.72l7.281 7.94c0.344 0.09 4.035 3.07 8.594 6.81v-1.38l-15.875-13.37z"/>
        <path id="path11671" style="fill-rule:evenodd;fill:#000000;fill-opacity:.22414" d="m-55.062 300.63l18.468 13.94 24.282 14.41-38.032-25.91-3.562-2.44h-1.156z"/>
        <path id="path11673" style="fill-rule:evenodd;fill:#000000;fill-opacity:.22414" d="m-66.219 340.8l11.157 8.4h1.156l-12.313-8.4z"/>
        <path id="path11675" style="fill-rule:evenodd;fill:#000000;fill-opacity:.22414" d="m-78.661 344.71c3.779-0.45 66.753-19.92 66.753-19.92s-36.067 10.19-36.64 10.31c-0.572 0.11-30.227 9.84-30.113 9.61z"/>
        <path id="path11677" style="fill-rule:evenodd;fill:#000000;fill-opacity:.22414" d="m-49.188 302.59c-1.783 0.22-16.781 4.68-32.093 9.32v0.84c0.226-0.06 1.969-0.56 2-0.56 0.572-0.12 30.208-9.83 30.093-9.6z"/>
        <path id="path11679" style="fill-rule:evenodd;fill:#000000;fill-opacity:.22414" d="m-10.368 311.91c-17.129 5.19-34.656 10.59-34.656 10.59s30.688-8.67 34.656-9.75v-0.84z"/>
        <g id="g11681" transform="translate(.0039062)">
          <path id="path11683" style="fill-rule:evenodd;fill:#000000;fill-opacity:.22414" d="m-69.406 334.88s-6.985 1.64-11.875 2.93v0.69c6.173-1.92 11.677-3.62 11.875-3.62zm1.75 1.65s-7.224 2.04-13.625 3.85v0.59c7.792-2.39 13.25-4.06 13.25-4.06s-6.217 1.75-10.625 3c6.465-1.99 11-3.38 11-3.38zm3.25 0.22s-11.019 3.46-16.875 5.31v0.63l16.875-5.94zm8.25 0.13s-13.114 3.87-25.125 7.5v0.87c12.37-4.07 25.125-8.37 25.125-8.37zm-7.25 0.5l-17.875 5.5v0.34l17.875-5.84zm53.031 0.43c-1.096 0.29-2.236 0.59-3 0.81-5.693 1.71-17.875 6.38-17.875 6.38s11.446-3.57 20.875-6.5v-0.69zm0 2.57c-10.605 2.99-22.643 6.39-23 6.46-0.138 0.03-4.697 1.51-7.406 2.38h3.312c9.314-2.81 19.355-5.88 27.094-8.25v-0.59zm-49.656 1.5l-21.25 6.03v0.47l21.25-6.5zm49.656 0.18c-7.855 2.49-12.138 3.87-22.625 7.16h4.5l6.125-2.1 12-3.9v-0.34l-4.531 1.4 4.531-1.59v-0.63zm0 2.32c-5.402 1.63-10.601 3.22-14.25 4.37-0.382 0.12-1.02 0.34-1.437 0.47h3.468c3.665-1.18 7.912-2.55 12.219-3.97v-0.87zm-49.656 0.28c-1.113 0.13-7.989 2.1-16.281 4.56h2.656c6.86-2.22 13.303-4.3 13.25-4.19-0.558 0.07-2.658 0.63-5.406 1.41 3.34-1.07 5.813-1.85 5.781-1.78zm49.656 3.25l-4.687 1.31h1.937l2.75-0.84v-0.47z"/>
          <path id="path11685" style="fill-rule:evenodd;fill:#000000;fill-opacity:.22414" d="m-40.781 300.62c-8.493 2.74-22.806 7.4-22.719 7.22 0.565-0.06 2.724-0.64 5.531-1.43-3.399 1.08-5.938 1.87-5.906 1.81 1.56-0.19 13.268-3.64 26.406-7.6h-3.312zm7.781 0c-10.368 3.26-20.02 6.28-23.844 7.38l21.282-5.84c-8.23 2.65-19.418 6.25-19.938 6.25l-5.25 3.25 32.25-11.04h-4.5zm6.938 0c-11.011 3.52-33.313 11.04-33.313 11.04s22.181-6.42 31.625-9.38c1.372-0.43 3.454-1.11 5.156-1.66h-3.468zm11 0l-16.438 4.66-11.188 3.53-1.312 0.35-2.094 0.75-13.031 4.12 7.687-2.22-10.062 3.6 18-5.5 23.25-6.75-9.5 2.4 8.75-2.53 7.875-2.41h-1.937zm4.687 1.47c-19.592 5.87-45.5 13.88-45.5 13.88s6.216-1.76 10.625-3c-6.466 1.98-11 3.37-11 3.37s36.052-10.16 36.625-10.28c0.202-0.04 4.379-1.39 9.25-2.97v-1zm0 3.79c-8.677 2.44-17.445 4.91-17.719 4.96-0.572 0.12-30.239 9.86-30.125 9.63 0.558-0.07 2.658-0.63 5.407-1.41-3.341 1.07-5.814 1.85-5.782 1.78 2.465-0.3 29.288-8.46 48.219-14.25v-0.71zm0 2.9l-17.094 4.97 9.5-2.41-8.75 2.54-31.875 9.74 42.375-12 5.844-1.84v-1zm0 2.91c-3.666 1.09-7.076 2.15-9.594 2.93-12.811 4.01-42.5 14-42.5 14s27.611-8.15 39.375-11.87c3.275-1.04 7.908-2.57 12.719-4.16v-0.9zm0 1.56l-14.969 5.13-29.875 9.74 22.407-6.9-21.407 7.53s24.796-7.89 43.844-13.84v-0.66l-1.781 0.5c0.57-0.18 1.187-0.37 1.781-0.56v-0.94zm0 3.06c-18.666 5.62-40.219 12.28-40.219 12.28s6.217-1.75 10.625-3c-6.465 1.99-11 3.38-11 3.38s36.053-10.2 36.625-10.31c0.074-0.02 3.046-0.99 3.969-1.28v-1.07zm-6.094 4.19s-32.25 10.12-32.75 10.12c0 0 10.702-2.49 14.875-3.74 5.693-1.71 17.875-6.38 17.875-6.38z"/>
          <path id="path11687" style="fill-rule:evenodd;fill:#000000;fill-opacity:.22414" d="m-76.312 300.62c-1.761 0.53-3.063 0.9-4.969 1.47v1c2.46-0.79 5.009-1.62 7.625-2.47h-2.656zm13.718 0c-0.215 0.07-9.326 2.62-18.687 5.26v0.71c10.09-3.08 18.531-5.65 18.531-5.65s-6.216 1.75-10.625 3c6.338-1.95 10.607-3.26 10.781-3.32zm5.469 0.88l-18 5.5-6.156 1.78v1l5.343-1.69 1.313-0.34 2.094-0.75 13.031-4.12-7.688 2.21 10.063-3.59zm-2.125 3.75s-11.944 3.43-22.031 6.44v0.9c10.571-3.49 22.031-7.34 22.031-7.34zm1.375 0l-23.406 8v0.94c7.98-2.57 17.672-5.69 18.156-5.69l5.25-3.25zm3.125 3.44c-1.564 0.19-13.347 3.65-26.531 7.62v1.07c6.201-1.98 26.256-8.52 26.156-8.32-0.565 0.07-2.724 0.65-5.531 1.44 3.399-1.09 5.938-1.88 5.906-1.81zm-7.031 0.22l-19.5 5.34v0.66c8.568-2.68 16.219-5.06 19.5-6z"/>
        </g>
        <g id="g11689" transform="matrix(-1 0 0 -1 -91.652 649.84)">
          <path id="path11691" style="fill-rule:evenodd;fill:#000000;fill-opacity:.22414" d="m-69.406 334.88s-6.985 1.64-11.875 2.93v0.69c6.173-1.92 11.677-3.62 11.875-3.62zm1.75 1.65s-7.224 2.04-13.625 3.85v0.59c7.792-2.39 13.25-4.06 13.25-4.06s-6.217 1.75-10.625 3c6.465-1.99 11-3.38 11-3.38zm3.25 0.22s-11.019 3.46-16.875 5.31v0.63l16.875-5.94zm8.25 0.13s-13.114 3.87-25.125 7.5v0.87c12.37-4.07 25.125-8.37 25.125-8.37zm-7.25 0.5l-17.875 5.5v0.34l17.875-5.84zm53.031 0.43c-1.096 0.29-2.236 0.59-3 0.81-5.693 1.71-17.875 6.38-17.875 6.38s11.446-3.57 20.875-6.5v-0.69zm0 2.57c-10.605 2.99-22.643 6.39-23 6.46-0.138 0.03-4.697 1.51-7.406 2.38h3.312c9.314-2.81 19.355-5.88 27.094-8.25v-0.59zm-49.656 1.5l-21.25 6.03v0.47l21.25-6.5zm49.656 0.18c-7.855 2.49-12.138 3.87-22.625 7.16h4.5l6.125-2.1 12-3.9v-0.34l-4.531 1.4 4.531-1.59v-0.63zm0 2.32c-5.402 1.63-10.601 3.22-14.25 4.37-0.382 0.12-1.02 0.34-1.437 0.47h3.468c3.665-1.18 7.912-2.55 12.219-3.97v-0.87zm-49.656 0.28c-1.113 0.13-7.989 2.1-16.281 4.56h2.656c6.86-2.22 13.303-4.3 13.25-4.19-0.558 0.07-2.658 0.63-5.406 1.41 3.34-1.07 5.813-1.85 5.781-1.78zm49.656 3.25l-4.687 1.31h1.937l2.75-0.84v-0.47z"/>
          <path id="path11693" style="fill-rule:evenodd;fill:#000000;fill-opacity:.22414" d="m-40.781 300.62c-8.493 2.74-22.806 7.4-22.719 7.22 0.565-0.06 2.724-0.64 5.531-1.43-3.399 1.08-5.938 1.87-5.906 1.81 1.56-0.19 13.268-3.64 26.406-7.6h-3.312zm7.781 0c-10.368 3.26-20.02 6.28-23.844 7.38l21.282-5.84c-8.23 2.65-19.418 6.25-19.938 6.25l-5.25 3.25 32.25-11.04h-4.5zm6.938 0c-11.011 3.52-33.313 11.04-33.313 11.04s22.181-6.42 31.625-9.38c1.372-0.43 3.454-1.11 5.156-1.66h-3.468zm11 0l-16.438 4.66-11.188 3.53-1.312 0.35-2.094 0.75-13.031 4.12 7.687-2.22-10.062 3.6 18-5.5 23.25-6.75-9.5 2.4 8.75-2.53 7.875-2.41h-1.937zm4.687 1.47c-19.592 5.87-45.5 13.88-45.5 13.88s6.216-1.76 10.625-3c-6.466 1.98-11 3.37-11 3.37s36.052-10.16 36.625-10.28c0.202-0.04 4.379-1.39 9.25-2.97v-1zm0 3.79c-8.677 2.44-17.445 4.91-17.719 4.96-0.572 0.12-30.239 9.86-30.125 9.63 0.558-0.07 2.658-0.63 5.407-1.41-3.341 1.07-5.814 1.85-5.782 1.78 2.465-0.3 29.288-8.46 48.219-14.25v-0.71zm0 2.9l-17.094 4.97 9.5-2.41-8.75 2.54-31.875 9.74 42.375-12 5.844-1.84v-1zm0 2.91c-3.666 1.09-7.076 2.15-9.594 2.93-12.811 4.01-42.5 14-42.5 14s27.611-8.15 39.375-11.87c3.275-1.04 7.908-2.57 12.719-4.16v-0.9zm0 1.56l-14.969 5.13-29.875 9.74 22.407-6.9-21.407 7.53s24.796-7.89 43.844-13.84v-0.66l-1.781 0.5c0.57-0.18 1.187-0.37 1.781-0.56v-0.94zm0 3.06c-18.666 5.62-40.219 12.28-40.219 12.28s6.217-1.75 10.625-3c-6.465 1.99-11 3.38-11 3.38s36.053-10.2 36.625-10.31c0.074-0.02 3.046-0.99 3.969-1.28v-1.07zm-6.094 4.19s-32.25 10.12-32.75 10.12c0 0 10.702-2.49 14.875-3.74 5.693-1.71 17.875-6.38 17.875-6.38z"/>
          <path id="path11695" style="fill-rule:evenodd;fill:#000000;fill-opacity:.22414" d="m-76.312 300.62c-1.761 0.53-3.063 0.9-4.969 1.47v1c2.46-0.79 5.009-1.62 7.625-2.47h-2.656zm13.718 0c-0.215 0.07-9.326 2.62-18.687 5.26v0.71c10.09-3.08 18.531-5.65 18.531-5.65s-6.216 1.75-10.625 3c6.338-1.95 10.607-3.26 10.781-3.32zm5.469 0.88l-18 5.5-6.156 1.78v1l5.343-1.69 1.313-0.34 2.094-0.75 13.031-4.12-7.688 2.21 10.063-3.59zm-2.125 3.75s-11.944 3.43-22.031 6.44v0.9c10.571-3.49 22.031-7.34 22.031-7.34zm1.375 0l-23.406 8v0.94c7.98-2.57 17.672-5.69 18.156-5.69l5.25-3.25zm3.125 3.44c-1.564 0.19-13.347 3.65-26.531 7.62v1.07c6.201-1.98 26.256-8.52 26.156-8.32-0.565 0.07-2.724 0.65-5.531 1.44 3.399-1.09 5.938-1.88 5.906-1.81zm-7.031 0.22l-19.5 5.34v0.66c8.568-2.68 16.219-5.06 19.5-6z"/>
        </g>
        <g id="g11697">
          <path id="path11699" style="fill-rule:evenodd;fill:#000000;fill-opacity:.22353" d="m-77.969 310.09s8.606 6.94 12.5 9.63c4.048 2.79 8.773 5.47 13.625 8.22l-26.125-17.85zm26.125 17.85l31 21.15-13-9.87c-5.509-4.19-11.859-7.8-18-11.28zm-26.25-13.6l33.75 23.13-26.625-19.25-7.125-3.88zm11.625 0.88l30.875 20.87-12.75-9.5-18.125-11.37zm-14.812 0.56v0.25c2.461 1.97 7.344 5.85 10.375 7.94 4.048 2.79 8.773 5.47 13.625 8.22l-24-16.41zm24 16.41l24.969 17.03h0.593l-7.562-5.75c-5.509-4.19-11.86-7.8-18-11.28zm-24-14.5v0.06l29.531 19.97-12.75-9.5-16.781-10.53zm15.875 2.78l22.75 15.62 13.5 8.75-15.125-10.87-21.125-13.5zm-15.875 0.03v1.06c3.974 2.72 8.56 5.33 13.281 8l-13.281-9.06zm13.281 9.06l28.812 19.66h0.219l-11.031-8.38c-5.509-4.18-11.859-7.79-18-11.28zm-2.344-8.09l15.125 10.87 21.125 13.5-22.75-15.62-13.5-8.75zm-10.937 0.81l22.469 15.44 13.5 8.75-15.126-10.88-20.843-13.31zm7.312 1.06l3.875 3.5 34.375 22.38h0.188l-38.438-25.88zm-7.312 0.72v0.78l20.781 14.25-20.781-15.03zm0 2.41v0.37l9.906 7.13 21.125 13.5-22.75-15.63-8.281-5.37zm0 2v0.81c2.514 1.51 5.158 3.01 7.843 4.53l-7.843-5.34zm7.843 5.34l22.563 15.41h0.875l-5.438-4.13c-5.509-4.18-11.859-7.79-18-11.28zm-7.843-3.78v0.25l28.156 18.94h1.313l-29.469-19.19zm0 0.91v0.75l26.906 17.53h0.25l-27.156-18.28zm0 1.56v1.06c5.186 3.77 11.006 7.11 16.656 10.32l-16.656-11.38zm16.656 11.38l7.813 5.34h1.343c-2.902-1.78-5.994-3.55-9.156-5.34zm-16.656-9.47v0.31l16.219 11.12 5.218 3.38h0.813l-7.657-5.5-14.593-9.31zm3.719 4.18l14.687 10.63h0.813l-15.5-10.63zm-3.719 0.07v0.81l3.656 2.62 11.156 7.13h0.688l-13.469-9.25-2.031-1.31zm0 1.81v1.06c3.658 2.32 7.478 4.47 11.219 6.59l-11.219-7.65zm11.219 7.65l1.593 1.1h0.313c-0.638-0.36-1.263-0.73-1.906-1.1zm-11.219-4.74v0.34l7.375 5.5h1.281l-8.656-5.84zm3.812 0.84l7.407 5h0.562l-7.969-5zm-3.812 0.12v0.82c1.796 1.38 3.551 2.69 4.812 3.56 0.242 0.17 0.504 0.33 0.75 0.5h1.563l-7.125-4.88zm0 3.38v0.97l0.75 0.53h1.343l-2.093-1.5z"/>
          <path id="path11701" style="fill-rule:evenodd;fill:#000000;fill-opacity:.22353" d="m-16.031 300.62c1.878 1.45 3.715 2.85 5.031 3.76 0.199 0.13 0.423 0.26 0.625 0.4v-1.06l-4.531-3.1h-1.125zm1.969 3.13l3.687 3.34v-0.87l-3.687-2.47z"/>
          <path id="path11703" style="fill-rule:evenodd;fill:#000000;fill-opacity:.22353" d="m-23.219 311.72s8.606 6.93 12.5 9.62c0.11 0.08 0.234 0.15 0.344 0.22v-1.06l-12.844-8.78zm10.719 2.62s1.423 1.13 2.125 1.69v-0.25l-2.125-1.44zm-16.156 1.63s8.605 6.93 12.5 9.62c1.807 1.25 3.753 2.47 5.781 3.69v-0.81l-18.281-12.5zm5.312 0l12.969 8.87v-0.78l-5.844-4.22-7.125-3.87zm11.625 0.87l1.344 0.91v-0.06l-1.344-0.85zm-13 5.88l13 9.87c0.44 0.34 0.894 0.65 1.344 0.97v-1.06l-14.344-9.78zm9.125 0.37l5.219 3.75v-0.37l-5.219-3.38zm-5.062 0.25l10.281 6.94v-0.25l-10.281-6.69zm1.437 1.63l3.875 3.5 4.969 3.22v-0.75l-8.844-5.97zm-10.937 2l13 9.87c2.153 1.64 4.433 3.2 6.781 4.69v-1.06l-19.781-13.5zm13.25 3.25l6.531 4.5v-0.31l-6.531-4.19zm-4.938 1l11.469 8.25v-0.81l-11.469-7.44zm3.782 7.87c-0.001 0 3.934 3.18 7.687 6.07v-0.82l-7.687-5.25zm2.656 0.88l5.031 3.75v-0.34l-5.031-3.41zm-8.094 3.37s3.789 3.04 7.469 5.88h1.125l-8.594-5.88zm5.312 0l7.813 5.35v-0.97l-0.687-0.5-7.126-3.88z"/>
          <path id="path11705" style="fill-rule:evenodd;fill:#000000;fill-opacity:.22353" d="m-80.531 300.62l25.187 17.26-23.844-17.26h-1.343zm4.812 0c3.881 2.62 8.313 5.14 12.875 7.72l-11.312-7.72h-1.563zm12.875 7.72l31 21.16-13-9.88c-5.509-4.18-11.859-7.79-18-11.28zm-11.062-7.72l0.344 0.26 18.124 11.37-17.187-11.63h-1.281zm3.844 0l23.468 15.88-12.75-9.5-10.156-6.38h-0.562zm1.593 0l24.531 16.76c0-0.01-8.605-6.94-12.5-9.63-3.511-2.42-7.547-4.75-11.718-7.13h-0.313zm2 0l9.969 6.38-9.281-6.38h-0.688zm3.594 0l11.937 8.63 7.126 3.87-18.25-12.5h-0.813zm3.031 0l8.282 5.38-7.469-5.38h-0.813zm3.032 0l18.312 12.5s-8.605-6.93-12.5-9.62c-1.41-0.97-2.918-1.92-4.469-2.88h-1.343zm2.437 0l7.875 5.13-7.625-5.13h-0.25zm1.25 0l5.187 3.5-3.874-3.5h-1.313zm2.25 0l8.437 5.76-7.562-5.76h-0.875zm11.687 0l2.188 1.5-1.969-1.5h-0.219zm3.469 0l5.375 3.5-5.187-3.5h-0.188zm3.407 0l6.031 4.13-5.438-4.13h-0.593zm-44.094 0.26l22.75 15.62 13.5 8.75-15.125-10.87-21.125-13.5zm-4.875 1.03l15.062 10.84 21.125 13.5-22.75-15.63-13.437-8.71zm0 1.81v1.06c3.911 2.65 8.387 5.2 13 7.81l-13-8.87zm13 8.87l31 21.16-13-9.87c-5.509-4.19-11.86-7.8-18-11.29zm-13-6.37v0.87l0.187 0.16 39.75 25.87-39.937-26.9z"/>
        </g>
        <g id="g11707" transform="matrix(-1 0 0 -1 -91.656 649.84)">
          <path id="path11709" style="fill-rule:evenodd;fill:#000000;fill-opacity:.22353" d="m-77.969 310.09s8.606 6.94 12.5 9.63c4.048 2.79 8.773 5.47 13.625 8.22l-26.125-17.85zm26.125 17.85l31 21.15-13-9.87c-5.509-4.19-11.859-7.8-18-11.28zm-26.25-13.6l33.75 23.13-26.625-19.25-7.125-3.88zm11.625 0.88l30.875 20.87-12.75-9.5-18.125-11.37zm-14.812 0.56v0.25c2.461 1.97 7.344 5.85 10.375 7.94 4.048 2.79 8.773 5.47 13.625 8.22l-24-16.41zm24 16.41l24.969 17.03h0.593l-7.562-5.75c-5.509-4.19-11.86-7.8-18-11.28zm-24-14.5v0.06l29.531 19.97-12.75-9.5-16.781-10.53zm15.875 2.78l22.75 15.62 13.5 8.75-15.125-10.87-21.125-13.5zm-15.875 0.03v1.06c3.974 2.72 8.56 5.33 13.281 8l-13.281-9.06zm13.281 9.06l28.812 19.66h0.219l-11.031-8.38c-5.509-4.18-11.859-7.79-18-11.28zm-2.344-8.09l15.125 10.87 21.125 13.5-22.75-15.62-13.5-8.75zm-10.937 0.81l22.469 15.44 13.5 8.75-15.126-10.88-20.843-13.31zm7.312 1.06l3.875 3.5 34.375 22.38h0.188l-38.438-25.88zm-7.312 0.72v0.78l20.781 14.25-20.781-15.03zm0 2.41v0.37l9.906 7.13 21.125 13.5-22.75-15.63-8.281-5.37zm0 2v0.81c2.514 1.51 5.158 3.01 7.843 4.53l-7.843-5.34zm7.843 5.34l22.563 15.41h0.875l-5.438-4.13c-5.509-4.18-11.859-7.79-18-11.28zm-7.843-3.78v0.25l28.156 18.94h1.313l-29.469-19.19zm0 0.91v0.75l26.906 17.53h0.25l-27.156-18.28zm0 1.56v1.06c5.186 3.77 11.006 7.11 16.656 10.32l-16.656-11.38zm16.656 11.38l7.813 5.34h1.343c-2.902-1.78-5.994-3.55-9.156-5.34zm-16.656-9.47v0.31l16.219 11.12 5.218 3.38h0.813l-7.657-5.5-14.593-9.31zm3.719 4.18l14.687 10.63h0.813l-15.5-10.63zm-3.719 0.07v0.81l3.656 2.62 11.156 7.13h0.688l-13.469-9.25-2.031-1.31zm0 1.81v1.06c3.658 2.32 7.478 4.47 11.219 6.59l-11.219-7.65zm11.219 7.65l1.593 1.1h0.313c-0.638-0.36-1.263-0.73-1.906-1.1zm-11.219-4.74v0.34l7.375 5.5h1.281l-8.656-5.84zm3.812 0.84l7.407 5h0.562l-7.969-5zm-3.812 0.12v0.82c1.796 1.38 3.551 2.69 4.812 3.56 0.242 0.17 0.504 0.33 0.75 0.5h1.563l-7.125-4.88zm0 3.38v0.97l0.75 0.53h1.343l-2.093-1.5z"/>
          <path id="path11711" style="fill-rule:evenodd;fill:#000000;fill-opacity:.22353" d="m-16.031 300.62c1.878 1.45 3.715 2.85 5.031 3.76 0.199 0.13 0.423 0.26 0.625 0.4v-1.06l-4.531-3.1h-1.125zm1.969 3.13l3.687 3.34v-0.87l-3.687-2.47z"/>
          <path id="path11713" style="fill-rule:evenodd;fill:#000000;fill-opacity:.22353" d="m-23.219 311.72s8.606 6.93 12.5 9.62c0.11 0.08 0.234 0.15 0.344 0.22v-1.06l-12.844-8.78zm10.719 2.62s1.423 1.13 2.125 1.69v-0.25l-2.125-1.44zm-16.156 1.63s8.605 6.93 12.5 9.62c1.807 1.25 3.753 2.47 5.781 3.69v-0.81l-18.281-12.5zm5.312 0l12.969 8.87v-0.78l-5.844-4.22-7.125-3.87zm11.625 0.87l1.344 0.91v-0.06l-1.344-0.85zm-13 5.88l13 9.87c0.44 0.34 0.894 0.65 1.344 0.97v-1.06l-14.344-9.78zm9.125 0.37l5.219 3.75v-0.37l-5.219-3.38zm-5.062 0.25l10.281 6.94v-0.25l-10.281-6.69zm1.437 1.63l3.875 3.5 4.969 3.22v-0.75l-8.844-5.97zm-10.937 2l13 9.87c2.153 1.64 4.433 3.2 6.781 4.69v-1.06l-19.781-13.5zm13.25 3.25l6.531 4.5v-0.31l-6.531-4.19zm-4.938 1l11.469 8.25v-0.81l-11.469-7.44zm3.782 7.87c-0.001 0 3.934 3.18 7.687 6.07v-0.82l-7.687-5.25zm2.656 0.88l5.031 3.75v-0.34l-5.031-3.41zm-8.094 3.37s3.789 3.04 7.469 5.88h1.125l-8.594-5.88zm5.312 0l7.813 5.35v-0.97l-0.687-0.5-7.126-3.88z"/>
          <path id="path11715" style="fill-rule:evenodd;fill:#000000;fill-opacity:.22353" d="m-80.531 300.62l25.187 17.26-23.844-17.26h-1.343zm4.812 0c3.881 2.62 8.313 5.14 12.875 7.72l-11.312-7.72h-1.563zm12.875 7.72l31 21.16-13-9.88c-5.509-4.18-11.859-7.79-18-11.28zm-11.062-7.72l0.344 0.26 18.124 11.37-17.187-11.63h-1.281zm3.844 0l23.468 15.88-12.75-9.5-10.156-6.38h-0.562zm1.593 0l24.531 16.76c0-0.01-8.605-6.94-12.5-9.63-3.511-2.42-7.547-4.75-11.718-7.13h-0.313zm2 0l9.969 6.38-9.281-6.38h-0.688zm3.594 0l11.937 8.63 7.126 3.87-18.25-12.5h-0.813zm3.031 0l8.282 5.38-7.469-5.38h-0.813zm3.032 0l18.312 12.5s-8.605-6.93-12.5-9.62c-1.41-0.97-2.918-1.92-4.469-2.88h-1.343zm2.437 0l7.875 5.13-7.625-5.13h-0.25zm1.25 0l5.187 3.5-3.874-3.5h-1.313zm2.25 0l8.437 5.76-7.562-5.76h-0.875zm11.687 0l2.188 1.5-1.969-1.5h-0.219zm3.469 0l5.375 3.5-5.187-3.5h-0.188zm3.407 0l6.031 4.13-5.438-4.13h-0.593zm-44.094 0.26l22.75 15.62 13.5 8.75-15.125-10.87-21.125-13.5zm-4.875 1.03l15.062 10.84 21.125 13.5-22.75-15.63-13.437-8.71zm0 1.81v1.06c3.911 2.65 8.387 5.2 13 7.81l-13-8.87zm13 8.87l31 21.16-13-9.87c-5.509-4.19-11.86-7.8-18-11.29zm-13-6.37v0.87l0.187 0.16 39.75 25.87-39.937-26.9z"/>
        </g>
      </g>
    </pattern>
    <filter id="filter5001" height="1.2256" width="1.2563" y="-.11281" x="-.12817" inkscape:collect="always">
      <feGaussianBlur id="feGaussianBlur5003" stdDeviation="2.7857194" inkscape:collect="always"/>
    </filter>
    <linearGradient id="linearGradient9117" y2="495.66" gradientUnits="userSpaceOnUse" x2="642.57" gradientTransform="translate(26.548 -33.903)" y1="495.66" x1="598.47" inkscape:collect="always">
      <stop id="stop5105" style="stop-color:#cf9400" offset="0"/>
      <stop id="stop5107" style="stop-color:#cf9400;stop-opacity:0" offset="1"/>
    </linearGradient>
    <linearGradient id="linearGradient9119" y2="115.6" gradientUnits="userSpaceOnUse" x2="722.6" y1="115.6" x1="670.96" inkscape:collect="always">
      <stop id="stop5119" style="stop-color:#ffd565" offset="0"/>
      <stop id="stop5121" style="stop-color:#ffd565;stop-opacity:0" offset="1"/>
    </linearGradient>
    <linearGradient id="linearGradient9121" y2="120.49" gradientUnits="userSpaceOnUse" x2="669.89" y1="120.49" x1="628.46" inkscape:collect="always">
      <stop id="stop5129" style="stop-color:#ffd565" offset="0"/>
      <stop id="stop5131" style="stop-color:#ffd565;stop-opacity:0" offset="1"/>
    </linearGradient>
    <radialGradient id="radialGradient9123" gradientUnits="userSpaceOnUse" cy="736.04" cx="675.4" gradientTransform="matrix(1 0 0 .72781 0 200.35)" r="8.8808" inkscape:collect="always">
      <stop id="stop5163" style="stop-color:#808080" offset="0"/>
      <stop id="stop5165" style="stop-color:#808080;stop-opacity:0" offset="1"/>
    </radialGradient>
  </defs>
  <sodipodi:namedview id="base" bordercolor="#666666" inkscape:pageshadow="2" guidetolerance="10" pagecolor="#ffffff" gridtolerance="10000" inkscape:window-height="840" inkscape:zoom="2" objecttolerance="10" showgrid="false" borderopacity="1.0" inkscape:current-layer="layer1" inkscape:cx="215.25998" inkscape:cy="92.585351" inkscape:window-y="40" inkscape:window-x="64" inkscape:window-width="1208" inkscape:pageopacity="0" inkscape:document-units="px" inkscape:window-maximized="0"/>
  <g id="layer1" inkscape:label="Layer 1" inkscape:groupmode="layer" transform="translate(-425.39 -722)">
    <g id="g4488" transform="matrix(.099439 -1 1 0 -346.56 1332)" inkscape:export-filename="C:\Users\kmacphail1f\Pictures\sketching.png" inkscape:export-xdpi="237.68489" inkscape:export-ydpi="237.68489">
      <path id="path12625" d="m1.5 53.856l109.5-50.5 69 170.5 1.12 2.75 1 4.37-2.12 3.88-114 62-4-1-61.5-186.5 1-5.504z" sodipodi:nodetypes="cccccccccc" style="fill-rule:evenodd;fill:#ffffff" transform="translate(425.39 722)"/>
      <rect id="rect4281" style="opacity:.49599;stroke-opacity:0;fill-rule:evenodd;fill-opacity:.91450;fill:#fef9d2" transform="matrix(.90724 -.42061 .36224 .93208 0 0)" height="176.78" width="119.16" y="885.64" x="119.2"/>
      <path id="path4814" style="fill-rule:evenodd;fill:#004c4f;stroke-opacity:0" d="m574.37 822.04c-35.53 16.47-35.29 16.36-35.29 16.36"/>
      <path id="path4818" style="fill-rule:evenodd;fill:#ffffcd;stroke-opacity:0;fill-opacity:.46983" d="m538.47 830.4c2.61-1.77 4.35-2.22 7.38-1.19 2.48 0.85 2.29 1.68 5.14 0.36 2.56-1.19 4.31-4.21 6.73-5.66 1.46-0.87 3.17-0.51 4.77-1.12 1.73-0.67 2.71-2.02 3.22-3.62 0.94-2.93-4.35-3.02-5.55-2.97-2.99 0.13-6.97 2.3-9.39 4.05-1.07 0.77-2.08-0.47-3.45-0.37-3.94 0.28-7.43 5.22-10.05 7.92-2.31 2.38-4.56 3.87-7.51 5.24-3.4 1.58-6.42 3.42-9.57 5.53-0.32 0.21-0.66 0.4-0.99 0.61-1.2 0.75-2.47 1.32-3.66 2.11-1.41 0.93-2.02 0.84-1.81 2.4 0.15 1.1 5.76 0.38 6.51 0.24 2.69-0.53 4.18-2.73 5.97-4.58 1.31-1.35 2.89-1.9 3.94-3.49 1.12-1.69 2.26-2.57 3.96-3.54 1.38-0.79 2.88-1.42 4.36-1.92z"/>
      <path id="path4820" style="fill-rule:evenodd;fill:#ffffcd;stroke-opacity:0;fill-opacity:.46983" d="m510.06 829.03c1.42-0.82 4.55-2.28 7.62-2.29 2.46-0.01 4.58-0.99 6.81-2.02 2.34-1.09 3.87-2.46 4.51-5.3 0.58-2.59-2.43-1.77-3.81-1.66-2.66 0.23-5.3 1.05-7.9 1.55-4.13 0.79-7.77 1.29-11.77 3.74-2.85 1.76-4.69 4.85-6.58 7.51-1.59 2.23-5.74 3.89-7.93 5.49-1.74 1.26-3.18 2.4-5.14 3.31-1.37 0.64-2.75 1.27-4.12 1.91-1.54 0.71-1.45 1.33-0.53 2.16 1.52 1.37 6.31-0.92 7.86-1.52 1.97-0.76 3.23-2.23 4.99-3.35 1.84-1.17 4.06-1.38 5.53-3.13 1.43-1.7 0.36-2.03 2.91-3.22 1.98-0.91 1.33-0.59 2.47-2.28 0.71-1.05 2.35-1.5 3.43-2 0.98-0.46 1.84-0.8 2.8-1.04"/>
      <path id="path4822" style="fill-rule:evenodd;fill:#ffffcd;stroke-opacity:0;fill-opacity:.46983" d="m522.01 874.48c3.86-0.98 8.82-5.63 12.33-7.78 3.85-2.37 8.23-4.03 12.3-5.91 3.11-1.45 7.28-1.93 10.62-2.45 2.64-0.4 5.05-1.79 7.53-2.76 2.36-0.92 4.27-2.53 6.5-3.69 1.8-0.93 3.73-2.15 5.17-3.59 0.96-0.95-0.87-1.63-1.31-1.67-2.21-0.2-4.05-0.99-6.31-0.8-2.37 0.21-5.09 2-7.24 3-2.55 1.18-4.96 2.27-7.24 3.98-2.75 2.04-6.06 3.02-8.95 4.82-2.59 1.6-5.01 3.63-7.65 5.1-2.5 1.39-4.97 3.21-7.26 4.92-1.81 1.34-3.81 2.6-5.45 4.08-0.73 0.65-1.14 1.11-1.68 1.76"/>
      <path id="path4824" style="fill-rule:evenodd;fill:#ffffcd;stroke-opacity:0;fill-opacity:.46983" d="m516.89 778.9c-0.55 0.65 5.24-1.81 9.37-3.73 3.44-1.59 6.93-3.07 10.15-5.12 1.62-1.02 3.27-2.91 4.61-4.31 0.77-0.8 1.01-1.5 1.42-2.31 0.81-1.63-5.07 0.31-5.54 0.45-3.66 1.04-8.6 2.95-11.6 5.53-2.51 2.14-5.18 3.69-8.03 5.22-3.1 1.67-6.13 3.53-9.17 5.34-3.17 1.88-6.58 3.43-9.65 5.45-1.54 1.03-2.36 1.53-3.46 3.01-1.46 1.95-1.34 2.27 1.1 1.25 3.81-1.59 7.41-3.51 10.98-5.66 0.37-0.22 0.74-0.45 1.11-0.67 2.41-1.46 6.12-4.2 8.71-4.45z"/>
      <path id="path4830" style="fill-rule:evenodd;fill:#00273c;stroke-opacity:0" d="m530.85 777.97z"/>
      <path id="path4842" sodipodi:rx="9.2150373" sodipodi:ry="11.024279" style="opacity:.49599;stroke-opacity:0;fill-rule:evenodd;fill-opacity:.90574;fill:#000000" sodipodi:type="arc" d="m 467.48152,324.86203 c 0,6.08854 -4.12572,11.02428 -9.21504,11.02428 -5.08933,0 -9.21504,-4.93574 -9.21504,-11.02428 0,-6.08854 4.12571,-11.02428 9.21504,-11.02428 5.08932,0 9.21504,4.93574 9.21504,11.02428 z" transform="matrix(.28236 -.13090 .11985 .30839 365 696.52)" sodipodi:cy="324.86203" sodipodi:cx="458.26648"/>
      <path id="path4844" sodipodi:rx="9.2150373" sodipodi:ry="11.024279" style="opacity:.49599;stroke-opacity:0;fill-rule:evenodd;fill-opacity:.90574;fill:#000000" sodipodi:type="arc" d="m 467.48152,324.86203 c 0,6.08854 -4.12572,11.02428 -9.21504,11.02428 -5.08933,0 -9.21504,-4.93574 -9.21504,-11.02428 0,-6.08854 4.12571,-11.02428 9.21504,-11.02428 5.08932,0 9.21504,4.93574 9.21504,11.02428 z" transform="matrix(.28236 -.13090 .11985 .30839 356.49 700.63)" sodipodi:cy="324.86203" sodipodi:cx="458.26648"/>
      <path id="path4846" sodipodi:rx="9.2150373" sodipodi:ry="11.024279" style="opacity:.49599;stroke-opacity:0;fill-rule:evenodd;fill-opacity:.90574;fill:#000000" sodipodi:type="arc" d="m 467.48152,324.86203 c 0,6.08854 -4.12572,11.02428 -9.21504,11.02428 -5.08933,0 -9.21504,-4.93574 -9.21504,-11.02428 0,-6.08854 4.12571,-11.02428 9.21504,-11.02428 5.08932,0 9.21504,4.93574 9.21504,11.02428 z" transform="matrix(.28236 -.13090 .11985 .30839 347.64 704.62)" sodipodi:cy="324.86203" sodipodi:cx="458.26648"/>
      <path id="path4848" sodipodi:rx="9.2150373" sodipodi:ry="11.024279" style="opacity:.49599;stroke-opacity:0;fill-rule:evenodd;fill-opacity:.90574;fill:#000000" sodipodi:type="arc" d="m 467.48152,324.86203 c 0,6.08854 -4.12572,11.02428 -9.21504,11.02428 -5.08933,0 -9.21504,-4.93574 -9.21504,-11.02428 0,-6.08854 4.12571,-11.02428 9.21504,-11.02428 5.08932,0 9.21504,4.93574 9.21504,11.02428 z" transform="matrix(.28236 -.13090 .11985 .30839 339.13 708.73)" sodipodi:cy="324.86203" sodipodi:cx="458.26648"/>
      <path id="path4850" sodipodi:rx="9.2150373" sodipodi:ry="11.024279" style="opacity:.49599;stroke-opacity:0;fill-rule:evenodd;fill-opacity:.90574;fill:#000000" sodipodi:type="arc" d="m 467.48152,324.86203 c 0,6.08854 -4.12572,11.02428 -9.21504,11.02428 -5.08933,0 -9.21504,-4.93574 -9.21504,-11.02428 0,-6.08854 4.12571,-11.02428 9.21504,-11.02428 5.08932,0 9.21504,4.93574 9.21504,11.02428 z" transform="matrix(.28236 -.13090 .11985 .30839 330.8 712.27)" sodipodi:cy="324.86203" sodipodi:cx="458.26648"/>
      <path id="path4852" sodipodi:rx="9.2150373" sodipodi:ry="11.024279" style="opacity:.49599;stroke-opacity:0;fill-rule:evenodd;fill-opacity:.90574;fill:#000000" sodipodi:type="arc" d="m 467.48152,324.86203 c 0,6.08854 -4.12572,11.02428 -9.21504,11.02428 -5.08933,0 -9.21504,-4.93574 -9.21504,-11.02428 0,-6.08854 4.12571,-11.02428 9.21504,-11.02428 5.08932,0 9.21504,4.93574 9.21504,11.02428 z" transform="matrix(.28236 -.13090 .11985 .30839 322.3 716.39)" sodipodi:cy="324.86203" sodipodi:cx="458.26648"/>
      <path id="path4854" sodipodi:rx="9.2150373" sodipodi:ry="11.024279" style="opacity:.49599;stroke-opacity:0;fill-rule:evenodd;fill-opacity:.90574;fill:#000000" sodipodi:type="arc" d="m 467.48152,324.86203 c 0,6.08854 -4.12572,11.02428 -9.21504,11.02428 -5.08933,0 -9.21504,-4.93574 -9.21504,-11.02428 0,-6.08854 4.12571,-11.02428 9.21504,-11.02428 5.08932,0 9.21504,4.93574 9.21504,11.02428 z" transform="matrix(.28236 -.13090 .11985 .30839 313.44 720.37)" sodipodi:cy="324.86203" sodipodi:cx="458.26648"/>
      <path id="path4856" sodipodi:rx="9.2150373" sodipodi:ry="11.024279" style="opacity:.49599;stroke-opacity:0;fill-rule:evenodd;fill-opacity:.90574;fill:#000000" sodipodi:type="arc" d="m 467.48152,324.86203 c 0,6.08854 -4.12572,11.02428 -9.21504,11.02428 -5.08933,0 -9.21504,-4.93574 -9.21504,-11.02428 0,-6.08854 4.12571,-11.02428 9.21504,-11.02428 5.08932,0 9.21504,4.93574 9.21504,11.02428 z" transform="matrix(.28236 -.13090 .11985 .30839 304.93 724.48)" sodipodi:cy="324.86203" sodipodi:cx="458.26648"/>
      <path id="path4858" sodipodi:rx="9.2150373" sodipodi:ry="11.024279" style="opacity:.49599;stroke-opacity:0;fill-rule:evenodd;fill-opacity:.90574;fill:#000000" sodipodi:type="arc" d="m 467.48152,324.86203 c 0,6.08854 -4.12572,11.02428 -9.21504,11.02428 -5.08933,0 -9.21504,-4.93574 -9.21504,-11.02428 0,-6.08854 4.12571,-11.02428 9.21504,-11.02428 5.08932,0 9.21504,4.93574 9.21504,11.02428 z" transform="matrix(.28236 -.13090 .11985 .30839 296.28 728.4)" sodipodi:cy="324.86203" sodipodi:cx="458.26648"/>
      <path id="path4860" sodipodi:rx="9.2150373" sodipodi:ry="11.024279" style="opacity:.49599;stroke-opacity:0;fill-rule:evenodd;fill-opacity:.90574;fill:#000000" sodipodi:type="arc" d="m 467.48152,324.86203 c 0,6.08854 -4.12572,11.02428 -9.21504,11.02428 -5.08933,0 -9.21504,-4.93574 -9.21504,-11.02428 0,-6.08854 4.12571,-11.02428 9.21504,-11.02428 5.08932,0 9.21504,4.93574 9.21504,11.02428 z" transform="matrix(.28236 -.13090 .11985 .30839 287.77 732.51)" sodipodi:cy="324.86203" sodipodi:cx="458.26648"/>
      <path id="path4862" sodipodi:rx="9.2150373" sodipodi:ry="11.024279" style="opacity:.49599;stroke-opacity:0;fill-rule:evenodd;fill-opacity:.90574;fill:#000000" sodipodi:type="arc" d="m 467.48152,324.86203 c 0,6.08854 -4.12572,11.02428 -9.21504,11.02428 -5.08933,0 -9.21504,-4.93574 -9.21504,-11.02428 0,-6.08854 4.12571,-11.02428 9.21504,-11.02428 5.08932,0 9.21504,4.93574 9.21504,11.02428 z" transform="matrix(.28236 -.13090 .11985 .30839 278.91 736.49)" sodipodi:cy="324.86203" sodipodi:cx="458.26648"/>
      <path id="path4864" sodipodi:rx="9.2150373" sodipodi:ry="11.024279" style="opacity:.49599;stroke-opacity:0;fill-rule:evenodd;fill-opacity:.90574;fill:#000000" sodipodi:type="arc" d="m 467.48152,324.86203 c 0,6.08854 -4.12572,11.02428 -9.21504,11.02428 -5.08933,0 -9.21504,-4.93574 -9.21504,-11.02428 0,-6.08854 4.12571,-11.02428 9.21504,-11.02428 5.08932,0 9.21504,4.93574 9.21504,11.02428 z" transform="matrix(.28236 -.13090 .11985 .30839 270.41 740.61)" sodipodi:cy="324.86203" sodipodi:cx="458.26648"/>
      <path id="path4866" style="fill-rule:evenodd;fill-opacity:.90574;stroke:#000000;stroke-width:.32057px;fill:#2d323b" d="m532.04 739c1.54-1.48 0.5-4.53-0.31-6.64-0.8-2.06-1.46-3.63-2.81-5.27-1.29-1.58-2.47-2.67-4.34-3.27-1.23-0.4-2.77 0.61-3.87 1.12-0.32 0.15 0-0.79 0.07-1.17 0.2-1.02 3.02-1.55 3.68-1.6 2.12-0.19 4.97 2.54 6.01 4.3 1.06 1.76 2.16 3.43 3.04 5.27 0.55 1.14 0.8 2.26 1.04 3.4 0.13 0.61-0.35 1.3-0.52 1.69-0.12 0.27-0.15 0.42-0.23 0.63"/>
      <path id="path4868" style="fill-rule:evenodd;fill-opacity:.90574;stroke:#000000;stroke-width:.32057px;fill:#2d323b" d="m522.78 742.05c-0.93 2.53-0.09-5.59-1.07-8.1-1.19-3.06-3.26-5.91-6.09-7.17-1.25-0.55-2.84-0.11-4.01 0.26-0.47 0.14-1.02 0.23-1.44 0.3-0.96 0.16 0.03-0.83 0.12-1.04 0.82-1.91 4.57-2.22 6.07-1.88 2.82 0.65 4.11 4.12 5.34 6.58 0.95 1.9 1.47 3.81 2.12 5.81 0.33 1.02-0.08 2.19-0.18 3.18-0.12 1.17-0.57-0.05-0.75-0.58"/>
      <path id="path4870" style="fill-rule:evenodd;fill-opacity:.90574;stroke:#000000;stroke-width:.32057px;fill:#2d323b" d="m515.6 746.67c-0.02 0.18-1.16-3.84-2.77-7.98-1.18-3.03-4.74-4-7.41-4.49-1.94-0.35-3.52 0.42-5.34 0.36-1.43-0.05 1.88-1.9 2.1-2.01 3.2-1.66 5.32-1.37 8.43 0.43 2.87 1.66 5.1 4.84 6.34 8.04 0.7 1.79 0.97 2.75 0.6 4.33-0.01 0.03-0.33-0.12-0.5-0.18"/>
      <path id="path4872" style="fill-rule:evenodd;fill-opacity:.90574;stroke:#000000;stroke-width:.32057px;fill:#2d323b" d="m508.48 750.59c-0.07 0.29-1.58-4.32-3.07-8.15-1.39-3.58-4.84-5.39-8.19-6.25-1.59-0.4-3.26 0.31-4.75 0.8-1.11 0.38 1.75-1.74 2.82-2.23 2.88-1.34 5.16 0.29 7.36 2.28 2.62 2.38 4.63 4.27 5.96 7.69 0.53 1.36 0.84 2.38 0.52 3.65 0 0.01-0.03 0.01-0.04 0.01"/>
      <path id="path4874" style="fill-rule:evenodd;fill-opacity:.90574;stroke:#000000;stroke-width:.32057px;fill:#2d323b" d="m498.65 754.84c-0.04 0.18 0.03-5.07-3.16-7.54-2.4-1.86-5.71-2.73-8.45-3.85-1.67-0.69-3.2-1.44-4.84-1.64-1.1-0.13 0.92-1.31 1.14-1.46 3.51-2.38 6.93-1.18 9.69 1.61 1.9 1.92 3.35 5.01 4.62 7.39 0.58 1.08 1.09 2.07 1.54 3.22 0 0.02-0.03 0.01-0.04 0.02"/>
      <path id="path4876" style="fill-rule:evenodd;fill-opacity:.90574;stroke:#000000;stroke-width:.32057px;fill:#2d323b" d="m520.42 725.75c0.46 1.19 0.93 2.41 1.5 3.39 0.12 0.21 0.46 0.34 0.6 0.45 0.27 0.2-0.47-2.42-0.54-2.6-0.39-1.13-0.31-1.61-0.13-2.53 0.03-0.14 0.49-0.27 0.59-0.32"/>
      <path id="path4878" style="fill-rule:evenodd;fill-opacity:.90574;stroke:#000000;stroke-width:.32057px;fill:#2d323b" d="m512.47 733.99c0.11-0.59-2.89-4.24-3.29-4.95-0.33-0.57-0.53-1.34-0.77-1.97-0.29-0.74 0.52-0.84 1.01-1.04 0.69-0.28 1.86 2.35 2.07 2.77 0.61 1.2 1.16 2.37 1.69 3.62 0.05 0.11 0.28 0.03 0.35 0.04"/>
      <path id="path4880" style="fill-rule:evenodd;fill-opacity:.90574;stroke:#000000;stroke-width:.32057px;fill:#2d323b" d="m493.61 737.61c0.43 1.02-0.06 3.99 0.6 5.67 0.27 0.69 0.55 1.38 0.84 2.05 0.26 0.61 0.4-0.67 0.2-1.18-0.75-1.93-0.71-3-0.83-4.95-0.1-1.57-1.09-1.49 0.34-2.02"/>
      <path id="path4882" style="fill-rule:evenodd;fill-opacity:.90574;stroke:#000000;stroke-width:.32057px;fill:#2d323b" d="m489.46 759.88c-0.11-1.73-1.5-4.49-1.99-6.33-0.47-1.81-1.66-3.16-2.6-4.64-0.99-1.56-3.05-3-4.45-4.15-1-0.83-2.6-0.55-3.66-0.43-1.16 0.13-1.75 0.91-2.23 1.81-0.56 1.06 0.36 3.11 0.59 4.18 0.19 0.87 0.39 1.62 0.72 2.46 0.03 0.08 0.05 0.15 0.08 0.22 0.39 0.99-0.55-2.07-0.6-3.13-0.04-0.85 0.32-1.09 0.71-1.58 0.46-0.56 0.68-0.79 1.32-1.23 1-0.67 2.03-0.07 3.06 0.24 1.07 0.32 2.75 2.07 3.36 3.05 0.64 1.01 1.09 2.21 1.69 3.25 0.47 0.81 0.73 1.79 1.16 2.62 0.23 0.45 0.78 0.9 1.1 1.25 0.28 0.3 0.41 0.82 0.58 1.24 0.2 0.51 0.12 0.02 0.46 0.09"/>
      <path id="path4884" style="fill-rule:evenodd;fill-opacity:.90574;stroke:#000000;stroke-width:.32057px;fill:#2d323b" d="m482.55 764.22c0.63 1.63-1.19-3.32-2.13-4.76-1.73-2.64-3.72-4.36-6.37-5.8-2.26-1.23-4.71-1.64-7.2-1.52-1.26 0.05-2.55 0.95-3.45 1.59-0.75 0.54-0.12-0.01 0.42-1.48 0.73-1.98 3.42-3.31 5.19-3.19 2.99 0.21 5.83 2.26 8.22 4.01 1.97 1.45 2.99 2.46 4.36 4.55 0.28 0.42 0.38 1.06 0.54 1.51 0.01 0.04 0 0.07 0 0.11"/>
      <path id="path4886" style="fill-rule:evenodd;fill-opacity:.90574;stroke:#000000;stroke-width:.32057px;fill:#2d323b" d="m474.77 765.71c0.06 0.17-2.09-3.57-5.17-6.72-2.6-2.67-5.88-3.64-9.1-4.95-1.06-0.43-2.27 0.13-3.4 0.24-1.88 0.18 3.57-2.03 5.43-1.7 3.97 0.71 6.34 3.9 9.25 6.54 1.08 0.98 1.71 3.78 2 5.02 0.01 0.05-0.03 0.09-0.05 0.13"/>
      <path id="path4888" style="fill-rule:evenodd;fill-opacity:.90574;stroke:#000000;stroke-width:.32057px;fill:#2d323b" d="m465.65 771.54c0.45 1.93-1.63-3.59-2.65-5.24-1.57-2.54-4.08-4.1-6.79-4.94-2.13-0.65-4.36-0.74-6.51-1.32-1.35-0.37-2.27-0.27-3.24-1.04-0.67-0.53 3.14-2.36 3.46-2.53 3.81-2.18 7.29 1.04 9.8 3.94 1.89 2.19 3.6 4.2 5.33 6.54 0.17 0.23 0.66 1.6 0.67 1.61"/>
      <path id="path4890" style="fill-rule:evenodd;fill-opacity:.90574;stroke:#000000;stroke-width:.32057px;fill:#2d323b" d="m455.69 774.5c0.17 0.22-0.89-3.71-3.95-6.04-3.26-2.49-7.68-2.83-11.36-4.21-0.9-0.33-2.39-0.62-3.12-0.83-1.83-0.54 3.38-1.93 5.13-2.74 3.27-1.52 6.42 3.09 8.52 5.16 1.7 1.67 2.63 4.19 3.89 6.22 0.17 0.28 0.24 0.62 0.36 0.93"/>
      <path id="path4892" style="fill-rule:evenodd;fill-opacity:.90574;stroke:#000000;stroke-width:.32057px;fill:#2d323b" d="m445.39 778.24c0.49 0.81-0.54-4.04-2-7.46-1.41-3.27-6.92-5.48-9.85-5.89-1.65-0.23-4.8 0.36-1.9-0.99 3.72-1.72 6.64 0.19 9.2 3.25 2.11 2.52 3.7 5.38 4.91 8.49 0.08 0.22-0.22 0.41-0.33 0.62"/>
      <path id="path4894" style="fill-rule:evenodd;fill-opacity:.90574;stroke:#000000;stroke-width:.32057px;fill:#2d323b" d="m437.3 781.99c0.18 0.46 0.15-3.57-0.82-6.87-0.74-2.48-1.83-4.97-2.85-7.32-0.9-2.08-2.85-2.51-4.71-2.64-1.09-0.07-1.61-0.09-2.6 0.23-0.6 0.19-0.04 3.28 0.04 3.76 0.31 1.78 0.65 3.56 0.89 5.33 0.18 1.36 0.38 2.55 0.78 3.83 0.24 0.76 0.58 1.48 0.9 2.07 0.27 0.51 0.79 0.86 1.14 1.23 0.18 0.19 0.51-0.23 0.56-0.26 1.02 1.09-1.98-2.31-2.58-3.72-0.38-0.9-1.22-1.79-1.73-2.62-0.56-0.91-0.74-1.88-0.75-2.91-0.01-1-0.02-1.84-0.01-2.69 0.02-0.67 0.28-1.49 0.41-2.1 0.14-0.65 0.93-0.93 1.48-1.31 0.84-0.57 1.36-0.56 2.28-0.33 1.43 0.35 2.71 3.43 3.41 4.63 0.83 1.43 1 3.19 1.59 4.7 0.33 0.85 0.64 1.5 1.08 2.19 0.42 0.65 1.01 0.92 1.57 1.24 0.02 0.01 0.42 0.34 0.49 0.4"/>
      <path id="path4896" style="fill-rule:evenodd;stroke-opacity:0;fill:#ececec" d="m440.01 762.71c0.59 0.13 1.17 0.25 1.76 0.38 2.21 0.48 4.41 1.6 6.48 2.59 0.73 0.34 1.77 0.16 2.41 0.12 0.44-0.02-3.34-2.29-3.93-2.47-1.39-0.43-3.02-0.82-4.31-1.01-0.47-0.06-0.21 0.02-0.28 0.03"/>
      <path id="path4898" style="fill-rule:evenodd;fill:#e3e5ea;stroke-opacity:0;fill-opacity:.90574" d="m467.78 750.77c-0.07-0.01 2.86 1.05 6.18 1.43 1.42 0.17 2.69 1.47 3.9 2.13 0.66 0.37 1.11 0.6 1.54 0.94 1.59 1.26-3.16-2.56-4.91-3.52-1.55-0.85-3.24-1.57-4.81-2.17-0.71-0.27-1.57 0.86-1.9 1.19z"/>
      <path id="path4900" style="fill-rule:evenodd;fill:#e3e5ea;stroke-opacity:0;fill-opacity:.90574" d="m450.67 759.12c-2.75-1.04 4.05 0.96 5.88 1.88 1.06 0.54 2.2 1.16 3.31 1.73 0.65 0.32-1.53-1.77-1.95-2.1-1.25-1-2.8-1.88-4.14-2.64-0.66-0.37-2.58 0.83-3.1 1.13z"/>
      <path id="path4902" style="fill-rule:evenodd;fill:#e3e5ea;stroke-opacity:0;fill-opacity:.90574" d="m476.81 745.81c-1.36-0.77 3.11 0.45 4.46 1.25 1.34 0.79 2.42 2.32 3.58 3.25 0.37 0.31 0.77 0.6 1.2 0.79 1.96 0.87-3.07-3.21-4.88-4.41-1.76-1.17-2.38-1.62-4.36-0.88z"/>
      <path id="path4904" style="fill-rule:evenodd;fill:#e3e5ea;stroke-opacity:0;fill-opacity:.90574" d="m484.93 742.98c-0.22-0.15 3.57 0.11 6.32 1.42 1.21 0.58 2.26 1.66 3.35 2.43 1.23 0.86 0.16-0.67-0.2-1.36-1.05-2-3.72-3.58-5.42-4.84-0.87-0.64-2.54 0.22-3.38 0.54-0.82 0.3-0.73 1-0.67 1.81z"/>
      <path id="path4906" style="fill-rule:evenodd;fill:#e3e5ea;stroke-opacity:0;fill-opacity:.90574" d="m506.14 734.7c-1.9 0.7 4.21-0.52 5.99 0.48 0.31 0.17 0.61 0.34 0.91 0.51 1.13 0.64 2.1 1.33 3.25 1.91 1.57 0.8-2.88-2.12-4.22-3.32-1.63-1.46-2.95-1.72-4.86-1.79-0.72-0.03-0.57 0.6-1.07 2.21z"/>
      <path id="path4908" style="fill-rule:evenodd;fill:#e3e5ea;stroke-opacity:0;fill-opacity:.90574" d="m515.13 727.58c-1.85-0.07 3.72 0.86 5.23 2.03 0.32 0.24 0.71 0.36 1.06 0.54 1.85 0.94-2.88-3.32-4.75-4.22-0.89-0.42-1.57-0.12-1.91-0.04"/>
      <path id="path4969" style="stroke:#000000;stroke-width:.32057px;fill:none" d="m430.73 783.38c60.28 159.25 60.18 158.44 60.18 158.44v0.23s49.91-14.14 55.41-15.41c5.5-1.28-54.36 15.87-54.36 15.87v-0.92l0.53 1.97-0.1-0.93 49.07-13.33 1.58 1.51 0.11-0.23-4.68-1.42"/>
      <path id="path4971" style="stroke:#000000;stroke-width:.32057px;fill:none" d="m596.13 897.67c-105.52 45.56-105.52 46.23-105.52 46.23"/>
      <path id="path4973" style="stroke:#000000;stroke-width:.32057px;fill:none" d="m603.49 899.01c-114.1 52.26-107.97 50.25-107.97 50.25"/>
      <path id="path4975" style="stroke:#000000;stroke-width:.32057px;fill:none" d="m493.07 957.3c110.42-52.26 109.2-52.93 109.2-52.93"/>
      <path id="path4977" style="stroke:#000000;stroke-width:.32057px;fill:none" d="m426.2 782.42c64.41 176.89 65.03 178.23 65.03 178.23"/>
      <path id="path4979" style="stroke:#000000;stroke-width:.32057px;fill:none" d="m496.13 955.29s-2.45 0.67-65.64-169.52c58.9 178.9 60.12 182.92 60.12 182.92"/>
      <path id="path4981" style="stroke:#000000;stroke-width:.32057px;fill:none" d="m605.34 907.05l-114.73 60.97"/>
      <path id="path4983" style="fill-rule:evenodd;fill:#ffea75;stroke-opacity:0;fill-opacity:.45490" d="m464.46 880.9c0.21 0.58 0.42 1.15 0.63 1.73 1.6 4.37 3.24 9.29 4.06 13.91 0.59 3.33 1.64 6.27 2.79 9.4 1.39 3.8 2.49 7.7 3.9 11.49 1.27 3.41 2.92 6.55 4.16 9.98 0.97 2.72 2.35 5.21 3.42 7.79 1.02 2.47 2.14 4.82 3.1 7.33 0.92 2.38 1.9 4.77 3.01 7.09 0.85 1.81 1.4 3.87 2.1 5.77 0.48 1.28 0.95 2.5 1.48 3.76 0.62 1.49 0.68-0.19 1.05-0.29 0.7-0.2-1.42-9.22-1.58-9.87-0.84-3.42-1.36-6.9-2.48-10.21-0.82-2.46-2.17-4.79-3.1-7.22-0.89-2.31-1.74-4.62-2.69-6.86-1.04-2.48-2.59-4.68-3.68-7.16-1.31-2.97-2.1-6.07-3.21-9.12-1.01-2.76-2.19-5.57-3.32-8.25-0.83-1.96-1.35-4.01-1.9-6.06-0.48-1.79-1.18-3.67-1.79-5.36-0.47-1.32-1.26-2.48-1.95-3.64-0.57-0.97-1.02-1.75-1.52-2.59-0.57-0.95-1.29-1.05-2.48-1.62z"/>
      <path id="path4985" style="fill-rule:evenodd;fill:#ffea75;stroke-opacity:0;fill-opacity:.45490" d="m569.4 917.08c-1.27 0.89-4.03 1.18-6 1.96-2.63 1.05-5.36 1.96-8 3.12-4.05 1.77-7.91 3.44-11.75 5.83-4.44 2.76-9.71 4.71-14.48 6.69-4.65 1.93-9.84 3.13-13.95 6.23-2.88 2.18-6.19 3.76-9.32 5.43-2.27 1.2-4.25 2.32-6.69 3.05-1.69 0.52-3.45 1.04-5.05 1.62-0.86 0.31-1.14 0.81-1.63 1.27-0.74 0.69 2.4 1.04 2.58 1.04 1.72 0 3.7-1.66 5.16-2.54 3.21-1.96 6.72-3.55 10.05-5.25 3.85-1.97 7.92-3.67 12.06-4.73 3.6-0.93 7.03-2.46 10.69-3.24 3.14-0.66 5.96-2.38 9.06-3.05 2.57-0.57 5.63-2.76 8.05-3.93 2.05-0.98 4.02-2.58 5.79-4.04 1.43-1.17 2.55-2.32 4.16-3.29 1.32-0.78 2.61-1.28 3.95-1.9 0.93-0.42 1.86-0.42 2.85-0.63 1.08-0.24 1.63-0.55 2.52-1.1 1.5-0.93 1.95-2.09 3.69-2.48"/>
      <path id="path4987" style="fill-rule:evenodd;fill:#ffea75;stroke-opacity:0;fill-opacity:.45490" d="m540.81 923.14c1.76-1.09-3.83 1.64-5.84 1.79-2.28 0.16-4.62 1.94-6.9 2.48-1.97 0.46-4.01 1.65-5.85 2.54-1.36 0.66-3.05 1.11-4.37 1.61-0.96 0.37-1.46 1.01-2.58 1.45-1.26 0.49-2.52 1.44-3.74 2.07-1.48 0.78-3.09 1.14-4.68 1.62-1.69 0.51-3.4 1.27-4.95 1.9-0.94 0.38-1.77 0.85-2.53 1.27-1.27 0.7-2.24 0.66-3.42 1.62-1.26 1.02-0.89 0.61-1.05 1.96-0.1 0.82 3.7-0.52 3.84-0.58 2.41-0.98 4.7-2.27 7.06-3.34 2.49-1.13 5.41-1.4 8.05-1.85 0.43-0.07 0.84-0.19 1.27-0.29 2.96-0.68 5.92-1.48 8.84-2.36 2.4-0.73 4.81-1.04 7.21-1.62 1.64-0.39 3.27-0.84 4.69-1.62 0.68-0.37 1.31-0.89 1.95-1.27 1.05-0.62 2.09-1.3 3.05-2.07 0.62-0.5 1.27-1.56 1.85-2.31 0.5-0.65 0.52-1.62 0.63-2.42 0.01-0.13 0-0.28 0-0.41"/>
      <path id="path4989" style="fill-rule:evenodd;fill:#ffea75;stroke-opacity:0;fill-opacity:.45490" d="m492 944.32c0.32-2.39 4.45-0.99 6.27-2.37 2.12-1.62 3.96-2.53 6.42-3.35 2.37-0.79 5.12-0.61 7.58-0.92 1.56-0.2 3.1-0.1 4.64-0.46 1.97-0.47 3.94-0.83 5.89-1.39 0.95-0.27 1.88-0.92 2.69-1.38 1.05-0.6 1.78-1.03 2.63-1.96 0.66-0.73 1.51-1.46 2.05-2.02 0.78-0.81-3.01-0.75-3.26-0.75-2.09 0-3.85 2.17-5.53 3.34-2.2 1.54-4.15 1.73-6.69 2.14-1.97 0.32-3.82 1.29-5.74 1.73-2.01 0.46-3.99 0.85-5.89 1.44-1.5 0.47-2.59 1.33-3.79 2.25-0.92 0.71-1.52 1.31-2.43 2.14-0.44 0.4-0.92 0.77-1.42 1.09"/>
      <path id="path4991" style="fill-rule:evenodd;fill:#ffea75;stroke-opacity:0;fill-opacity:.45490" d="m493.74 960.13c-0.17 0.15 3.75-1.01 7.37-2.43 3.28-1.28 6.8-2.02 9.85-3.81 2.43-1.42 4.57-3.23 7.1-4.44 2.72-1.29 5.3-2.95 8.01-4.33 2.41-1.23 4.84-2.35 7.26-3.57 2.04-1.03 3.7-2.3 5.58-3.47 0.93-0.57 2.11-0.97 3.01-1.38 1.15-0.53 2.24-0.67 3.52-0.87 1.91-0.29 3.74-1.02 5.27-2.13 0.85-0.62 1.57-1.26 2.26-2.02 0.84-0.92 2.14-1.72 2.85-2.54 0.42-0.49 0.91-0.93 1.31-1.33 0.85-0.82-1.4 1.97-2.26 2.77-2.11 1.96-5.76 3.49-8.43 4.1-3.61 0.82-7.41 2.28-10.9 3.63-3.5 1.37-7.06 3.83-10.32 5.89-3.13 1.98-6.38 3.7-9.58 5.54-2.3 1.32-4.61 2.62-6.58 4.27-1.72 1.44-4.31 2.2-6.16 3.4-1.13 0.74-2.6 1.16-3.84 1.5-0.96 0.27-2.07 0.06-3.06 0.29-1.21 0.29-0.6-0.02-2.26 0.93z"/>
      <path id="path4993" style="fill-rule:evenodd;fill:#ffea75;stroke-opacity:0;fill-opacity:.45490" d="m600.59 897.29c-1.47 0.35-4.44 1.32-6.11 2.13-2.84 1.38-5.53 2.44-8.48 3.52-3.32 1.22-6.9 2.86-10.11 4.39-3.51 1.67-7.15 2.98-10.63 4.67-2.75 1.34-5.62 2.8-8.22 4.39-2.25 1.37-4.74 2.13-6.95 3.52-1.52 0.95-3.24 1.5-4.84 2.31-1.58 0.79-2.97 1.47-4.32 2.53-0.92 0.73 2.28 0.04 3.42-0.05 2.73-0.22 5.72-1.65 8.32-2.6 3.81-1.39 6.71-4.23 10.22-6.29 2.94-1.73 5.85-3.9 8.84-5.31 2.13-1 4.35-1.81 6.58-2.13 1.99-0.29 3.84-1.08 5.85-1.39 1.54-0.23 3.3-0.99 4.74-1.5 1.23-0.43 2.53-1.59 3.74-2.25 1.33-0.73 2.64-1.45 3.84-2.19 0.74-0.46 1.35-1.25 2-1.85 0.82-0.75 0.99-1.17 2.11-1.9z"/>
      <path id="path4995" style="fill-rule:evenodd;fill:#ffea75;stroke-opacity:0;fill-opacity:.45490" d="m603.01 901.27c0.16-0.15-4.27-0.51-7.37 1.96-2.47 1.96-4.75 2.73-7.74 3.58-3.67 1.04-7.37 2.62-10.53 4.85-3.33 2.33-6.8 3.78-10.53 5.19-2.48 0.94-5.39 1.77-7.53 3.4-1.53 1.17 0.24 0.91 1.31 1.04 2.41 0.3 5.24-0.89 7.37-1.96 3.43-1.72 6.89-3.4 10.27-5.25 2.95-1.62 5.59-3.68 8.79-4.56 2.12-0.58 4.03-1.49 6.11-2.19 1.14-0.38 2.16-0.75 3.21-1.16 1.04-0.39 2.05-0.61 3.06-1.09 0.99-0.48 1.72-1.31 2.68-1.73 1.3-0.57 1.35-2.02 3.22-1.79 0.59 0.07 1.46-0.85 1.89-1.1 0.93-0.53-2.13-0.3-2.47-0.29-0.67 0.03-1.16 0.73-1.74 1.1z"/>
      <path id="path4997" style="fill-rule:evenodd;fill:#ffea75;stroke-opacity:0;fill-opacity:.45490" d="m603.75 905.48c-3.58 0.14-5.59 0.77-8.69 2.66-3.25 1.97-7.42 2.87-11.06 3.34-4.2 0.54-9.49 4.25-13.22 6.35-3.46 1.96-7.02 3.88-10.58 5.66-2.25 1.12-4.46 3.31-6.47 4.84-1.27 0.97-2.97 1.63-4.32 2.48-1.21 0.76 0.15 1 0.68 1.22 1.6 0.63 4.49-2.05 5.79-2.72 3.26-1.66 5.82-4.71 9.17-6.4 3.86-1.96 7.78-3.14 11.9-4.27 3.1-0.85 6.12-2.13 9.26-2.89 2.32-0.55 4.58-1.53 6.85-2.19 1.43-0.42 2.74-1.06 4.1-1.56 1.01-0.37 1.73-1.41 2.79-1.9 0.9-0.41 1.68-1.14 2.48-1.73 0.54-0.41 0.93-0.75 1.58-1.16 0.9-0.56-0.83-1.88 1.26-1.32"/>
      <path id="path4999" d="m579.27 722.16c6.77-3.89 3.26 15.46 6.86 22.39 1.17 2.24 3.27 4.83 4.29 6.37 3.28 4.92-11.76-1.38-17.68-1.38-5.24 0-10.25 1.31-15.27 2.93-5.07 1.64-10.13 2.27-14.94 4.48-5.65 2.6-1.31 0 0.35 0 4.92 0 11.36-4.69 16.13-6.03 3.25-0.91 5.6-2.45 8.24-4.13 2.83-1.81 2.62-4.42 2.75-7.58 0.15-3.78 0-7.59 0-11.37 0-3.93-2.28-7.24-3.26-11.02-1.19-4.54-0.6-9.47-1.72-13.95-1.71-6.87-0.17-0.46 2.23 3.61 3.74 6.36 12.08 16.47 12.53 21.88 0.19 2.22 0.49 0.79 1.37 2.24" style="filter:url(#filter5001);fill-rule:evenodd;fill:#ffea75;stroke-opacity:0;fill-opacity:.46097" transform="matrix(.30674 0 0 .33503 423.74 644.27)"/>
      <path id="path5005" style="fill-rule:evenodd;fill:#ffea75;stroke-opacity:0;fill-opacity:.46097" d="m440.46 817.54c0.12 1.56 1.93 5.7 3.26 8.36 1.51 3.01 2.71 6.46 3.85 9.7 1.16 3.31 2.82 6.45 4.42 9.52 1.43 2.74 2.48 6 3.53 8.94 0.92 2.58 2.4 4.8 3.16 7.39 0.69 2.38 1.5 4.89 2.05 7.21 0.37 1.56 1.18 3.07 1.9 4.44 0.77 1.48 1.51 2.87 2.05 4.45 0.5 1.46 1.23 2.87 1.84 4.27 1.09 2.47-1.27-1.05-1.63-1.56-2.09-3.01-3.78-6.49-4.95-10.04-1-3.05-2.99-5.93-4.32-8.83-1.27-2.79-2.27-5.78-3.58-8.54-1.49-3.17-2.19-6.58-3.47-9.81-1.12-2.82-2.35-5.67-3-8.66-0.55-2.47-1.95-4.75-2.9-6.98-0.87-2.05-1.69-4.16-2.53-6.23-0.98-2.44 0.78-3.63-1.15-3.63"/>
      <path id="path5007" style="fill-rule:evenodd;fill-opacity:.46097;stroke:#000000;stroke-width:.32057px;fill:#ffea75" d="m427.88 783.43c-0.96-2.35 1.31 4.97 2.37 7.27 1.84 4.05 4.16 7.88 5.84 12.06 1.17 2.92 2.82 5.48 3.9 8.43 0.91 2.49 1.2 2.76 0.05-0.12-3.01-7.49-6.4-14.81-9.43-22.27-0.72-1.77-1.78-3.73-2.73-5.37z"/>
      <path id="path5009" style="opacity:.39476;fill-rule:evenodd;fill:#ffef95;stroke-opacity:0;fill-opacity:.46097" d="m553.25 768.08c-0.07-0.18 1.25 3.52 2.64 8.37 0.8 2.83 2.46 5.56 3.47 8.37 0.34 0.95 0.93 2.19 1.26 2.94 0.46 1.05 1.24 2.23 1.74 3.46 0.88 2.16 1.78 4.24 2.48 6.52 0.98 3.25 2.1 6.4 3 9.7 1.22 4.48 3.9 8.15 5.1 12.63 1.01 3.74 1.93 7.59 3.27 11.2 0.84 2.26 0.98 4.62 1.89 6.81 0.41 0.98 0.58 2.17 0.85 3.11 0.68 2.43 2.17 4.84 3.05 7.22 0.82 2.21 1.61 4.15 2.58 6.17 0.9 1.89 2.26 3.69 3.32 5.54 1.09 1.92 1.82 5.01 2.1 7.21 0.23 1.73 1.95 4.04 2.69 5.66 0.82 1.79 1.18 3.97 1.74 5.88 0.59 2.05 1.37 3.89 1.79 6 0.16 0.82-4.24-4.25-4.85-4.78-2.71-2.38-3.38-7.34-4.95-10.62-2.16-4.52-3.44-9.55-4.95-14.37-2.17-6.96-4.46-13.62-7.37-20.25-2.17-4.96-5.02-9.88-6.42-15.18-1.07-4.05-2.65-7.83-4.9-11.25-2.06-3.15-3.9-6.88-5.47-10.33-1.25-2.74-2.34-5.83-3.21-8.71-0.68-2.23-1.37-4.37-2.16-6.58-0.82-2.29-1.56-4.61-2.53-6.93-0.65-1.55-1.33-3.11-1.69-4.73-0.27-1.24 0.45-1.33 1.22-1.73 1.13-0.59 3.08-0.93 4.31-1.33z"/>
      <path id="path5035" style="fill-rule:evenodd;fill:#a18900;stroke-opacity:0;fill-opacity:.46097" d="m599.75 896.75c0.31-0.17-3.81 1.41-7.53 3.86-2.6 1.71-5.45 2.88-7.9 4.68-2.1 1.53-4.49 2.56-6.9 3.28-2.42 0.74-4.78 2.33-7.06 3.29-0.78 0.33-1.33 1.11-1.94 1.73-0.1 0.1 3.78-0.09 7.53-1.03 3.06-0.78 6.01-2.74 9-3.75 2.41-0.82 4.84-2.32 7.11-3.52 2.28-1.21 4.51-2.98 6.79-4.27 0.9-0.52 2-1.28 2.69-1.74 0.58-0.39 0.99-0.71 1.42-1.15 0.85-0.88-1.09-1.24-1.48-1.33"/>
      <path id="path5037" style="fill-rule:evenodd;fill:#a18900;stroke-opacity:0;fill-opacity:.46097" d="m568.57 911.11c0.38-0.38-3.62 2.47-7.26 4.1-3.11 1.39-6.15 1.93-8.74 4.27-1.86 1.69-4.95 2.11-7 3.46-0.78 0.51-2.02 0.76-2.8 1.16-1.46 0.73-2.16 1.78-0.15 1.61 3.33-0.27 8.09-2.89 10.69-5.13 2.22-1.93 4.61-2.95 7.26-4.04 1.52-0.63 3.04-1.49 4.48-2.14 0.82-0.37 1.3-0.7 2.16-1.15 0.71-0.38 0.88-1.44 1.36-2.14z"/>
      <path id="path5039" style="fill-rule:evenodd;fill:#a18900;stroke-opacity:0;fill-opacity:.46097" d="m604.43 902.8c0.44-0.22-4.17 2.99-8.74 5.25-2.52 1.25-4.98 2.87-7.53 4.1-0.51 0.25-0.84 0.81-1.26 1.21-0.51 0.49 4.27-1.6 8.37-3.57 2.59-1.25 4.92-2.79 7.16-4.56 2.5-1.98 2.31-0.86 4.53-2.02 0.52-0.27 1-0.75 1.42-1.1 1.44-1.18-3.6 0.54-5.26 1.27-0.33 0.14-0.17 0.77-0.22 0.98"/>
      <path id="path5041" style="fill-rule:evenodd;fill:#a18900;stroke-opacity:0;fill-opacity:.46097" d="m598.11 900.9c-2.86 1.26-6.6 3.43-9.63 5.6-2.75 1.96-5.7 3.51-8.27 5.65-0.66 0.55-2.36 0.76-2.89 1.1-2.21 1.37 5.27-0.18 7.47-1.56 4.79-3 10.06-5.06 14.74-8.14 1.83-1.2 3.53-2.46 5.59-3 1.28-0.33 2.58-0.44 3.84-0.86 0.54-0.18 0.96-1.44 1.16-1.85 0.08-0.17-8.03 2.26-8.9 2.77-2.12 1.25-4.53 1.55-6.32 2.94"/>
      <path id="path5043" style="fill-rule:evenodd;fill:#a18900;stroke-opacity:0;fill-opacity:.46097" d="m501.97 948.85c-0.16 0.12 4.34-1.64 8.42-3.23 4.3-1.67 8.4-3.94 12.59-5.89 2.32-1.08 4.36-2.38 6.74-3.34 1.8-0.74 3.48-1.91 5.16-2.83 1.78-0.98 3.6-1.84 5.37-3 1.05-0.69 2.09-1.36 3.16-1.96 2.82-1.61-0.26 0.13-1.85 0.75-5.07 1.98-9.92 5.5-14.74 8.08-4.01 2.13-7.91 4.56-11.9 6.75-2.29 1.25-4.53 2.22-6.63 3.69-1.2 0.83-2.46 1.34-3.79 1.67-1.97 0.5-2.55-0.61-3.01 0.93-0.15 0.51-0.46-0.52 0.06 0.05"/>
      <path id="path5045" style="fill-rule:evenodd;fill:#a18900;stroke-opacity:0;fill-opacity:.46097" d="m570.31 915.73c-0.89 3.05-7.99 3.82-10.84 4.96-3.55 1.43-6.19 4.36-9.8 5.31-1.71 0.45-3.56 1.55-4.89 2.6-0.61 0.47-1.39 1.11-1.9 1.44-2.33 1.51 5.22-1.58 7.74-2.65 3.48-1.49 6.81-3.35 10.21-4.97 2.35-1.11 4.37-3.05 6.53-3.98 2.96-1.27 3.06-2.66 5.22-1.56 0.64 0.33 1.56-0.59 2-0.8 0.93-0.47-1.36-1.34-1.48-1.39"/>
      <path id="path5047" style="fill-rule:evenodd;fill:#a18900;stroke-opacity:0;fill-opacity:.46097" d="m493.28 961.08c3.52-1.75 7.06-1.37 10.48-4.44 2.79-2.5 6-4.26 9.27-5.89 2.52-1.25 4.89-2.56 7.47-3.57 1.87-0.73 3.59-1.15 5.37-2.08 0.99-0.52 2.03-1.05 3.11-1.5 1.55-0.65 1.49-1.07 1.05 1.21-0.56 2.94-6.23 5.26-8.32 6.41-3.49 1.91-6.64 3.48-9.79 6-2.28 1.81-4.57 3.12-7.11 4.33-2.27 1.08-4.49 2.05-6.63 3.52-1.3 0.89-2.79 1.41-4.11 2.13-0.85 0.47-1.55 0.85-2.42 1.21-0.67 0.28-0.59-0.11-1.21-0.23-1.31-0.25-2.14-4.95-2.27-6.06-0.22-1.88 0.52-1.78 2.11-2.31 2.2-0.73 4.32-1.81 6.42-2.82 1.14-0.55 2.18-1.17 3.16-1.97"/>
      <path id="path5049" style="fill-rule:evenodd;fill:#a18900;stroke-opacity:0;fill-opacity:.46097" d="m529.98 942.5c1.96-0.94 4.22-1.76 6.58-3.17 3.21-1.92 6.72-3.11 9.74-5.37 2.51-1.87 5.22-2.55 8.06-3.23 1.57-0.37 3.12-1.75 4.63-2.48 3.63-1.75 0.11-0.08-1.84 0.92-4.51 2.31-8.54 5.83-12.8 8.66-2.66 1.77-5.48 3.13-8.1 4.79-1.39 0.88-2.9 1.35-4.32 2.19-0.79 0.47-1.61 0.54-2.42 0.75-0.37 0.1-0.04-0.04 0.05 0.06"/>
      <path id="path5051" style="fill-rule:evenodd;fill:#a18900;stroke-opacity:0;fill-opacity:.46097" d="m593.73 872.08c-0.03 0.01 2.51 6.38 4.9 10.74 1.61 2.94 2.91 6.13 4.53 9.06 0.88 1.59 1.34 3.25 1.89 4.9 0.47 1.39 0.43-0.61 0.43-1.33 0-3.78-2.64-9.7-4.69-12.58-1.73-2.41-2.93-5.21-4.21-7.9-0.95-1.99-0.47-4.29-2.85-2.89-0.76 0.45 0.61-2.1 0.06-2.82"/>
      <path id="path5053" style="fill-rule:evenodd;fill:#a18900;stroke-opacity:0;fill-opacity:.46097" d="m538.35 729.99c-0.07-0.1 1.68 3.75 3.95 7.96 1.42 2.64 2.75 5.42 3.69 8.25 0.73 2.21 1.7 4.5 2.73 6.52 0.86 1.68 1.79 3.27 2.27 5.08 0.45 1.71 0.8 3.22 1.37 4.9 0.07 0.23 0.14 0.47 0.21 0.7 0.41 1.34 0.83 2.72 1.26 4.04 0.44 1.33-1.19-2.78-1.53-3.47-1.84-3.7-3.26-7.56-4.79-11.42-1-2.54-2.25-5.13-3.74-7.33-1.1-1.64-1.76-3.75-2.68-5.54-0.63-1.21-0.94-2.25-1.26-3.52-0.25-0.95-0.35-1.79-0.48-2.71-0.12-0.89 0.16-1.7 0.21-2.08"/>
      <path id="path5055" style="fill-rule:evenodd;fill:#a18900;stroke-opacity:0;fill-opacity:.46097" d="m560.73 790.99c-0.06-0.39 0.97 3.62 2.79 7.44 1.23 2.59 2.23 5.18 3.32 7.79 0.87 2.08 1.85 4.08 2.68 6.18 0.6 1.49 1.23 2.8 1.95 3.92 1.06 1.66 1.54 4.02 2.32 5.89 0.73 1.74 1.37 3.3 2.26 4.9 0.01 0.02-1.33-4.94-3-9.69-1.48-4.21-3.6-8.1-5.16-12.29-1.04-2.8-2.2-5.6-3.11-8.37-0.59-1.82-1.55-3.45-2.1-5.25-0.23-0.74-0.37-1.2-0.58-1.91"/>
      <path id="path5079" style="fill-rule:evenodd;fill:#241e00;stroke-opacity:0;fill-opacity:.46097" d="m499.94 955.95c1.03-0.35 2.05-0.69 3.07-1.04 3.39-1.15 6.92-4.5 10.36-6.14 3.26-1.56 6.29-3.5 9.21-5.1 2.68-1.48 5.61-2.8 8.24-4.06 2.03-0.97 4.2-1.9 6.35-3.13 1.92-1.1 4.57-1.6 6.56-2.43 1.72-0.73 3.36-1.71 4.97-2.55 1.99-1.05 3.75-1.76 5.81-2.78 2.59-1.29 5.07-2.25 7.41-3.6 2.29-1.31 4.77-2.69 6.98-4.17 2.97-1.98 1.26-0.67-0.74 1.16-4.18 3.81-8.74 5.61-13.54 8-4.32 2.15-8.68 4.17-12.8 6.72-3.51 2.18-6.85 4.69-10.26 7.07-2.67 1.87-5.28 3.72-7.93 5.56-2.27 1.59-5.08 3.09-7.29 4.64-2.25 1.56-4.48 2.96-6.67 4.63-1.22 0.94-2.93 1.58-4.33 2.32-1.47 0.77-3.6 0.75-5.19 1.04-2.37 0.44-2.22-0.83-2.22-3.01 0-1.27 1.34-2.08 2.01-3.13z"/>
      <path id="path5081" style="fill-rule:evenodd;fill:#241e00;stroke-opacity:0;fill-opacity:.46097" d="m492.75 955.72c0-0.48 12.74-5.59 14.17-6.37 2.84-1.56 5.65-3.32 8.15-5.22 1.37-1.05 3.05-2.27 4.12-3.13 0.66-0.52-8.37 0.97-16.07 5.8-3.22 2.01-6.26 4.08-8.25 6.14-0.81 0.83-1.41 1.85-2.12 2.78z"/>
      <path id="path5083" style="fill-rule:evenodd;fill:#241e00;stroke-opacity:0;fill-opacity:.46097" d="m513.9 941.23c-3 3.1 7.03-4.76 10.37-7.42 3.85-3.07 8.13-5.93 12.27-8.11 4.08-2.15 8.1-3.56 12.47-4.52 2.08-0.45 4.14-1.21 6.14-1.97 4.92-1.87-9.7 4.24-14.28 6.96-5.53 3.27-10.36 6.8-15.33 10.89-1.92 1.58-4.2 2.52-6.35 3.36-0.71 0.28-1.47 0.73-2.11 1.04"/>
      <path id="path5085" style="fill-rule:evenodd;fill:#241e00;stroke-opacity:0;fill-opacity:.46097" d="m476.57 925.59c-0.09 0.03 8.05 11.91 13.22 19.7 2.64 3.98 6.32 6.11 9.2 9.73 0.99 1.25 2.63 4.04 2.75 4.29 1.79 3.77-4.63-6.81-6.98-10.2-4.23-6.09-8.89-12.16-13.54-17.84-2.35-2.89-4.76-5.8-7.4-8.7-0.7-0.77-1.41-2.96-1.8-3.71-0.98-1.88 0.41-0.89 0.74-1.62 1.53-3.35 3.45 8.35 6.88 8.35 0.73 0 5.47 6.27 6.24 7.07 4.04 4.18-3.46-4.73-4.13-5.8-0.8-1.28-1.62-2.55-2.43-3.82-1.93-3.04-3.79-6.3-6.45-8.58-0.14-0.12 2.33 10.59 6.34 12.17 2.54 1 10.06 17.34 7.83 10.31-2.53-7.95-8.02-15.08-10.36-23.06-1.67-5.69 4.33 10.97 6.24 16.57 1.94 5.74 7.71 18.64 1.37 4.76-2.93-6.44-4.22-18.06-7.72-9.62-1.32 3.18 4.68 4.89 6.35 7.88 1.25 2.26 12.27 26.96 5.07 11.7-5.74-12.16 2.05 6.81 3.17 9.62 3.26 8.15-5.91-7.98-5.92-7.99-2.22-2.56 2.65 6.43 4.23 9.5 0.39 0.74-1.48-0.54-2.22-0.81-0.81-0.3 1.34 1.16 2.01 1.74"/>
      <path id="path5087" style="fill-rule:evenodd;fill:#241e00;stroke-opacity:0;fill-opacity:.46097" d="m458.27 862.65c1.47 1.27 1.73 9.1 2.54 11.36 1.02 2.86 1.62 5.63 2.65 8.69 0.7 2.11 1.07 4.3 2.01 6.26 1.16 2.44 2.06 4.47 2.85 6.84 0.69 2.08 1.6 4.23 2.43 5.91 1.11 2.23 1.79 4.21 2.54 6.49 0.78 2.35 1.74 4.53 2.65 6.61 1.02 2.34 1.83 4.72 2.53 6.95 0.93 2.92-0.03-4.33-0.31-5.33-1.2-4.27-1.81-8.75-2.54-13.1-0.65-3.82-1.83-7.57-2.65-11.12-0.59-2.61-1.5-5.17-2.22-7.54-0.62-2.03-1.63-3.33-2.75-5.21-0.68-1.15-1.15-2.22-1.79-3.36-0.72-1.27-1.15-2.72-1.7-4.18-0.75-2.03-1.57-3.8-2.32-5.79-0.98-2.57-1.15-2.72-3.92-3.48z"/>
      <path id="path5089" style="fill-rule:evenodd;fill:#241e00;stroke-opacity:0;fill-opacity:.46097" d="m444.1 827.07c-1.2-3.17 3.16 5.93 4.87 8.81 1.4 2.37 2.4 5.15 3.28 7.3 0.78 1.92 2.22 3.98 3.17 5.91 1.05 2.14 1.64 4.02 2.43 5.68 0.84 1.75 1.62 3.34 2.22 5.1 0.26 0.76-0.14 1.62-0.21 2.43-0.18 2.09-2.49-3.23-3.38-5.1-0.72-1.49-1.44-2.37-2.23-3.7-0.85-1.45-1.44-2.95-2.11-4.41-0.67-1.47-1.48-2.62-2.22-4.17s-1.32-3.74-1.8-5.45c-0.47-1.71-0.98-3.25-1.48-4.75-0.48-1.43-1.17-2.62-1.48-4.17-0.21-1.08-0.54-0.53-1.06-3.48z"/>
      <path id="path5095" style="fill-rule:evenodd;fill:#fffbe5;stroke-opacity:0;fill-opacity:.87361" d="m568.11 914.76c1.2 0.17 3.93-1.41 5.77-2.24 3.12-1.4 6.51-2.24 9.67-3.6 2.34-1.01 4.75-1.81 7.03-3 0.8-0.42 1.42-0.85 2.3-1.05 1.34-0.31 2.56-0.67 3.85-1.16 1.19-0.45 2.26-0.95 3.49-1.3 1.25-0.37 2.52-0.78 3.69-1.39 0.86-0.45 1.23-0.66 1.68-1.28 0.31-0.41-0.35-1.5-0.46-1.95-0.3-1.23-1.02-2.68-1.68-3.71-0.89-1.39-1.48-2.99-2.4-4.39-0.74-1.13-1.3-2.45-1.94-3.6-0.57-1.02-1.02-1.93-1.68-2.89-0.19-0.28-0.36-0.73-0.47-1.02-0.26-0.69-0.48-0.6-1.19-0.54-0.52 0.05-1.58 3.41-1.81 3.85-1.01 2.01-0.86 4.63-1.44 6.83-0.74 2.75-3.08 4.44-4.35 6.83-1.12 2.11-2.31 4.04-4.26 5.24-1.64 1-3.58 1.21-5.4 1.53-1.75 0.31-3.4 0.46-4.81 1.7-1.02 0.89-2.16 2.12-2.54 3.48-0.29 1.06-0.38 1.48-1.31 2.01-0.85 0.49-1.8 0.6-2.64 1.14-0.38 0.24-0.06 0.81 0 1.04 0.11 0.47 2.16 0.74 2.51 0.88 0.82 0.33 1.79 0.29 2.66 0.17 1.24-0.16 2.97-1.41 4.24-1.81 1.47-0.47 2.92-0.79 4.34-1.33 0.93-0.36 1.81-0.83 2.72-1.31 1.02-0.54 2.09-0.78 3.1-1.38 0.75-0.45 1.3-0.95 1.99-1.48 0.87-0.66 1.57-1.34 2.3-2.21 1.26-1.51 2.64-2.65 4.06-4.02 1.29-1.25 2.88-2.17 4.29-3.26 0.42-0.32 0.95-0.52 1.37-0.7"/>
      <path id="path5188" style="stroke:#000000;stroke-width:1.5067;fill:none" d="m426.2 782.42c61.35 184.26 61.35 185.6 61.35 185.6"/>
    </g>
    <g id="g3778" transform="matrix(0.3127409,-0.07682812,0.07682812,0.3127409,295.96684,622.64539)" inkscape:export-filename="C:\Users\kmacphail1f\Pictures\sketching.png" inkscape:export-xdpi="237.68489" inkscape:export-ydpi="237.68489">
      <path inkscape:connector-curvature="0" id="path2268" style="color:#000000;fill:#000000" d="m 412.82,761.054 c 0.19,3.86 0.35,7.71 0.5,11.57 0.36,8.47 0.85,16.93 1.34,25.39 0.76,13.12 1.53,26.23 2.26,39.34 0.74,13.4 1.48,26.79 2.03,40.19 0.3,5.92 0.1,11.85 0.06,17.77 h -0.07 c -0.24,-5.91 -0.77,-11.81 -0.96,-17.73 -0.58,-13.4 -1.15,-26.79 -1.89,-40.18 -0.75,-13.11 -1.53,-26.22 -2.44,-39.32 -0.58,-8.46 -1.16,-16.92 -1.65,-25.39 -0.22,-3.87 -0.42,-7.74 -0.5,-11.61 l 1.32,-0.03 z"/>
      <path inkscape:connector-curvature="0" id="path2272" style="color:#000000;fill:#000000" d="m 416.5,893.804 c 1.57,-1.46 3.39,-2.53 5.25,-3.56 3.27,-1.55 6.84,-2.15 10.38,-2.74 5.6,-0.83 11.22,-1.49 16.83,-2.25 7.55,-1.03 15.07,-2.25 22.58,-3.55 9.12,-1.6 18.21,-3.34 27.3,-5.06 9.13,-1.73 18.27,-3.32 27.44,-4.78 7.37,-1.17 14.75,-2.24 22.15,-3.19 4.89,-0.6 9.79,-1.05 14.71,-1.1 0.6,0.03 1.2,0.05 1.8,0.07 l 0.02,0.18 c -0.59,0.14 -1.17,0.28 -1.75,0.41 -4.81,0.95 -9.63,1.81 -14.46,2.62 -7.34,1.23 -14.71,2.35 -22.07,3.48 -9.15,1.47 -18.29,2.97 -27.39,4.67 -9.11,1.71 -18.21,3.46 -27.33,5.11 -7.53,1.32 -15.08,2.6 -22.67,3.61 -5.59,0.76 -11.19,1.46 -16.79,2.18 -3.38,0.48 -6.79,0.91 -10.06,1.9 -1.84,0.76 -3.68,1.5 -5.14,2.92 l -0.8,-0.92 z"/>
      <path inkscape:connector-curvature="0" id="path2290" style="color:#000000;fill:#000000" d="m 382.61,870.174 c 2.85,1.92 5.63,3.94 8.39,5.98 4.24,3.17 8.5,6.32 12.77,9.46 3.77,2.79 7.67,5.39 11.57,7.99 4.01,2.73 -1,-0.67 2.59,1.76 l -0.03,0.06 c -3.88,-1.99 1.5,0.86 -2.8,-1.44 -4.05,-2.4 -7.87,-5.13 -11.65,-7.94 -4.26,-3.14 -8.49,-6.33 -12.79,-9.43 -2.77,-2.01 -5.52,-4.06 -8.35,-5.99 l 0.3,-0.45 z"/>
      <g transform="translate(-6.0000001,-15)" id="g3752">
        <path d="m 475.8,822.314 32.88,-6.54 39.42,-6.54 35,-4.77 -13.78,-6.72 -37.66,-19.09 -15.73,0.53 -12.91,1.59 -11.84,1.24 -15.38,1.94" style="color:#000000;fill:#faf9f6;fill-rule:evenodd" id="path12518" inkscape:connector-curvature="0"/>
        <path d="m 424.89,678.245 7.07,-2.475 22.1,50.735 21.21,42.069 -13.79,0.18 -24.57,1.95 -13.43,3.53 -6.37,3.01 v -2.13 c 0,-2.82 -0.18,-36.76 -0.18,-36.76 l 4.95,-30.057 2.66,-26.516" style="color:#000000;fill:#e6e6e6;fill-rule:evenodd" id="path12522" inkscape:connector-curvature="0"/>
        <path d="m 417.01,776.024 0.5,-40.25 5,-35.248 2.5,-23 -4.5,-1.5 -15.75,30.25 -24.25,49.498 10.25,6.25 13.25,7.75 8.75,4.75" style="color:#000000;fill:#b3b3b3;fill-rule:evenodd" id="path13493" inkscape:connector-curvature="0"/>
        <path d="m 423.26,906.274 8.5,-2.5 82.25,-13.75 47.25,-7.75 18.75,-1.5 2.75,-77 -67,10.75 -40.75,6.25 0.75,-52 -31.75,1.25 -9.75,0.75 -10,3 -7.5,3 3.5,56.25 3,59.5" style="color:#000000;fill:#cccccc;fill-rule:evenodd" id="path12514" inkscape:connector-curvature="0"/>
        <path d="m 579.26,880.104 c 0.04,-5.4 0.21,-10.8 0.38,-16.21 0.3,-9.28 0.59,-18.57 0.89,-27.86 0.25,-9.34 0.65,-18.66 1.29,-27.97 0.09,-1.29 0.18,-2.57 0.27,-3.85 h 0.07 c -0.06,1.29 -0.12,2.57 -0.17,3.86 -0.32,9.32 -0.64,18.65 -0.99,27.97 -0.32,9.29 -0.65,18.58 -0.93,27.87 -0.14,5.39 -0.29,10.79 -0.34,16.19 h -0.47 z" style="color:#000000;fill:#000000" id="path2228" inkscape:connector-curvature="0"/>
        <path d="m 578.97,881.744 c -0.09,-3.44 0.17,-6.88 0.34,-10.31 0.3,-6.05 0.44,-12.1 0.57,-18.15 0.12,-6.97 0.22,-13.95 0.37,-20.92 0.13,-5.61 0.3,-11.21 0.41,-16.82 -0.05,-3.27 0.11,-6.48 0.71,-9.68 0.26,-0.93 0.66,-1.81 1.02,-2.7 l 0.16,0.01 c 0.32,0.9 0.67,1.8 0.88,2.74 0.47,3.23 0.49,6.44 0.23,9.71 -0.19,5.6 -0.42,11.2 -0.57,16.81 -0.18,6.97 -0.28,13.93 -0.37,20.9 -0.1,6.08 -0.21,12.15 -0.44,18.22 -0.12,3.45 -0.18,6.91 -0.58,10.34 l -2.73,-0.15 z" style="color:#000000;fill:#000000" id="path2232" inkscape:connector-curvature="0"/>
        <path d="m 583.58,805.174 c -3.39,0.72 -6.82,1.21 -10.25,1.69 -6.3,0.83 -12.6,1.63 -18.9,2.46 -8.34,1.12 -16.67,2.36 -24.99,3.66 -8.54,1.34 -17.05,2.86 -25.55,4.47 -7.16,1.38 -14.29,2.91 -21.44,4.33 -3.19,0.64 -6.4,1.15 -9.63,1.44 l -0.03,-0.13 c 3.1,-0.95 6.23,-1.82 9.38,-2.6 7.1,-1.72 14.23,-3.33 21.4,-4.71 8.52,-1.62 17.05,-3.12 25.62,-4.42 8.33,-1.32 16.65,-2.62 25,-3.79 6.29,-0.88 12.59,-1.71 18.9,-2.47 3.37,-0.46 6.76,-0.87 10.08,-1.64 l 0.41,1.71 z" style="color:#000000;fill:#000000" id="path2240" inkscape:connector-curvature="0"/>
        <path d="m 475.83,821.804 c 0.9,2.5 1.29,1.01 -1.61,1.79 -0.15,-2.91 -0.15,-5.83 -0.18,-8.75 -0.06,-6.52 0.04,-13.04 0.1,-19.56 0.05,-5.7 0.05,-11.4 0.03,-17.1 -0.01,-3.04 -0.04,-6.08 -0.09,-9.12 -0.25,-0.96 0.14,-1.91 0.26,-2.79 0.14,-0.16 0.35,-0.12 0.52,-0.18 l 1.79,0.27 c 0.16,0.06 0.35,0.05 0.49,0.17 0.06,0.79 0.31,1.68 0.12,2.53 -0.04,3.05 -0.07,6.09 -0.1,9.13 -0.05,5.71 -0.11,11.41 -0.18,17.12 -0.08,6.5 -0.15,13 -0.09,19.5 0.03,3.08 0.16,6.17 0.02,9.25 -3.14,1.45 -2.54,0.55 -2.78,-1.91 l 1.7,-0.35 z" style="color:#000000;fill:#000000" id="path2242" inkscape:connector-curvature="0"/>
        <path d="m 424.89,678.245 7.42,-2.298 -4.06,-1.237 -4.6,-0.531 -3.36,1.768 4.6,2.298 z" style="color:#000000;fill:#faf9f6;fill-rule:evenodd" id="path12520" inkscape:connector-curvature="0"/>
        <path d="m 473.29,768.414 c -0.86,-1.5 -1.76,-2.98 -2.66,-4.47 -0.96,-1.54 -1.88,-3.09 -2.82,-4.65 -1.12,-1.77 -2.1,-3.62 -3.07,-5.48 -1.2,-2.38 -2.28,-4.82 -3.38,-7.25 -1.25,-2.72 -2.46,-5.46 -3.67,-8.19 -1.31,-2.99 -2.69,-5.95 -4.07,-8.9 -1.44,-2.959 -2.84,-5.937 -4.22,-8.923 -1.33,-2.867 -2.58,-5.765 -3.83,-8.664 -1.28,-2.985 -2.43,-6.022 -3.58,-9.057 -1.15,-3.135 -2.42,-6.224 -3.75,-9.286 -1.33,-2.979 -2.65,-5.958 -3.96,-8.946 -0.95,-2.242 -1.93,-4.468 -2.93,-6.683 -1.03,-1.376 -0.51,-1.926 -0.2,-3.256 l 0.67,-0.334 c 1.26,0.621 2.04,0.546 2.43,2.289 0.98,2.245 1.93,4.499 2.88,6.757 1.29,2.989 2.6,5.969 3.93,8.943 1.35,3.107 2.64,6.243 3.81,9.422 1.15,2.992 2.28,5.988 3.54,8.93 1.25,2.875 2.49,5.75 3.79,8.596 1.38,2.977 2.77,5.945 4.2,8.895 1.41,2.967 2.78,5.957 4.12,8.947 1.22,2.73 2.43,5.46 3.68,8.17 1.08,2.38 2.15,4.77 3.34,7.1 0.95,1.79 1.91,3.57 3,5.28 0.95,1.57 1.91,3.15 2.73,4.8 0.82,1.54 1.63,3.09 2.45,4.63 l -2.43,1.33 z" style="color:#000000;fill:#000000" id="path2244" inkscape:connector-curvature="0"/>
        <path d="m 430.51,676.393 c -1.72,-0.842 -3.52,-0.988 -5.39,-1.049 -1.43,-0.131 -2.39,0.656 -3.47,1.256 0.48,-0.376 1.26,0.163 1.89,0.424 1,0.531 2.12,0.644 3.2,0.896 l 0.02,0.31 c -1.22,0.255 -2.41,0.648 -3.67,0.596 -2.14,-0.558 -3.98,-1.112 -3.03,-3.68 1.59,-0.996 3,-1.933 5.05,-1.844 2.13,0.104 4.23,0.288 6.2,1.21 l -0.8,1.881 z" style="color:#000000;fill:#000000" id="path2250" inkscape:connector-curvature="0"/>
        <path d="m 421.71,908.764 -11.49,-7.96 -12.91,-9.37 -10.07,-7.24 -1.24,-28.11 -4.6,-49.68 -0.35,-51.08 13.79,8.83 13.43,7.78 9.02,4.42 3,49.85 2.83,50.38 0.71,21.92 0.3,7.85 -2.42,2.41 z" style="color:#000000;fill:#999999;fill-opacity:1;fill-rule:evenodd" sodipodi:nodetypes="ccccccccccccccc" id="path12516" inkscape:connector-curvature="0"/>
        <path d="m 421.2,676.324 c -1.17,2.112 -2.24,4.277 -3.33,6.434 -1.81,3.649 -3.53,7.335 -5.31,10.998 -2.49,5.204 -5.01,10.394 -7.54,15.581 -2.91,6.026 -5.81,12.054 -8.68,18.097 -2.49,5.23 -5.1,10.41 -7.74,15.56 -1.8,3.43 -3.51,6.9 -5.28,10.34 -0.79,1.44 -1.84,2.69 -2.86,3.96 l -0.06,-0.03 c 0.28,-1.61 0.51,-3.24 1.1,-4.78 1.57,-3.57 3.29,-7.07 5.18,-10.49 2.71,-5.09 5.33,-10.23 7.82,-15.441 2.91,-6.029 5.73,-12.1 8.67,-18.11 2.51,-5.194 5,-10.392 7.49,-15.593 1.73,-3.699 3.46,-7.4 5.26,-11.063 1.11,-2.203 2.2,-4.417 3.49,-6.516 l 1.79,1.053 z" style="color:#000000;fill:#000000" id="path2254" inkscape:connector-curvature="0"/>
        <path d="m 381.39,757.164 c 0.27,0.18 0.54,0.35 0.81,0.52 l -0.05,0.09 c -0.29,-0.14 -0.58,-0.27 -0.87,-0.41 l 0.11,-0.2 z" style="color:#000000;fill:#000000" id="path2256" inkscape:connector-curvature="0"/>
        <path d="m 384.42,756.634 c 3.01,2.13 5.99,4.32 8.97,6.5 l 2.4,1.53 -0.04,0.05 -2.52,-1.32 c -3.39,-1.61 -6.82,-3.2 -9.79,-5.54 l 0.98,-1.22 z" style="color:#000000;fill:#000000" id="path2258" inkscape:connector-curvature="0"/>
        <path d="m 425.11,681.135 c -0.09,4.392 -0.57,8.764 -1.02,13.131 -1.1,9.784 -2.64,19.514 -4.3,29.216 -1.14,5.922 -2.19,11.862 -3.2,17.812 l -0.06,-0.01 c 1.01,-5.95 1.98,-11.9 2.67,-17.892 1.32,-9.736 2.73,-19.464 3.67,-29.245 0.41,-4.343 0.74,-8.692 0.92,-13.051 l 1.32,0.039 z" style="color:#000000;fill:#000000" id="path2262" inkscape:connector-curvature="0"/>
        <path d="m 407.51,771.384 c 2.06,1.03 4.13,2 6.21,2.98 1.42,0.67 2.84,1.34 4.27,1.98 0.43,0.04 0.11,-0.13 0.56,-0.68 1.52,-1.22 3.44,-1.62 5.27,-2.15 2.17,-0.55 4.39,-0.81 6.61,-1.03 l 0.03,0.12 c -2.08,0.76 -4.16,1.5 -6.27,2.17 -1.61,0.55 -3.27,1.02 -4.76,1.88 -0.54,0.1 -1.17,1.14 -1.77,0.31 -1.34,-0.8 -2.69,-1.57 -4.14,-2.18 -2.08,-0.96 -4.17,-1.92 -6.25,-2.89 l 0.24,-0.51 z" style="color:#000000;fill:#000000" id="path2266" inkscape:connector-curvature="0"/>
        <path d="m 579.55,804.614 c -3,-1.54 -6.01,-3.07 -9.04,-4.56 -4.57,-2.22 -9.11,-4.5 -13.65,-6.79 -4.48,-2.29 -8.97,-4.56 -13.49,-6.77 -3.03,-1.33 -5.95,-2.83 -8.79,-4.53 -1.26,-0.8 -2.32,-1.83 -3.4,-2.85 l 0.06,-0.12 c 1.46,0.22 2.92,0.41 4.33,0.85 3.15,1.09 6.2,2.36 9.13,3.96 4.5,2.25 8.98,4.56 13.47,6.84 4.56,2.28 9.16,4.47 13.65,6.88 3,1.65 6,3.28 8.85,5.19 l -1.12,1.9 z" style="color:#000000;fill:#000000" id="path2274" inkscape:connector-curvature="0"/>
        <path d="m 531.81,779.114 c -3.19,-0.11 -6.37,0 -9.56,0.19 -6.15,0.49 -12.27,1.26 -18.4,1.91 -4.5,0.51 -9.02,0.65 -13.53,0.89 l -0.01,-0.06 c 4.51,-0.33 8.99,-0.84 13.47,-1.4 6.14,-0.77 12.26,-1.66 18.43,-2.14 3.21,-0.19 6.42,-0.29 9.64,-0.02 l -0.04,0.63 z" style="color:#000000;fill:#000000" id="path2280" inkscape:connector-curvature="0"/>
        <path d="m 381.82,756.904 c 0.78,2.69 1.02,5.48 1.19,8.27 0.28,5.53 0.2,11.08 0.15,16.61 -0.16,8.69 -0.17,17.38 0,26.07 0.19,9.09 0.84,18.15 1.59,27.21 0.71,8.24 1.55,16.48 2.4,24.71 0.56,5.38 1.11,10.76 1.45,16.16 0.23,2.54 0.45,4.86 -0.57,7.2 -0.03,0.48 -0.5,0.4 -0.74,0.6 l -0.29,-0.06 c -0.06,-0.06 -0.79,-0.38 -0.6,-0.58 -0.94,-2.25 -0.8,-4.56 -0.83,-6.99 -0.24,-5.37 -0.69,-10.72 -1.2,-16.06 -0.78,-8.25 -1.59,-16.5 -2.3,-24.76 -0.75,-9.11 -1.38,-18.24 -1.58,-27.38 -0.18,-8.71 -0.19,-17.42 -0.15,-26.13 -0.02,-5.46 -0.03,-10.93 -0.38,-16.39 -0.21,-2.64 -0.41,-5.29 -0.75,-7.92 l 2.61,-0.56 z" style="color:#000000;fill:#000000" id="path2286" inkscape:connector-curvature="0"/>
        <path d="m 514.74,855.554 c -0.06,3.85 0.02,7.71 0.1,11.56 0.11,5.2 0.28,10.4 0.21,15.61 h -0.16 c -0.28,-5.2 -0.32,-10.4 -0.44,-15.6 -0.1,-3.86 -0.18,-7.71 -0.25,-11.57 h 0.54 z" style="color:#000000;fill:#000000" id="path2292" inkscape:connector-curvature="0"/>
        <path d="m 516.11,856.034 c 2.41,-0.73 4.87,-1.23 7.34,-1.68 0.01,-0.11 2.55,-0.21 2.63,-0.22 l 0.02,0.16 c -0.84,0.22 -1.68,0.43 -2.52,0.65 -2.41,0.64 -4.83,1.26 -7.23,1.92 l -0.24,-0.83 z" style="color:#000000;fill:#000000" id="path2296" inkscape:connector-curvature="0"/>
        <path d="m 527.81,856.084 c 0.17,3.39 0.23,6.79 0.29,10.18 l -0.06,0.01 c -0.16,-3.39 -0.33,-6.78 -0.64,-10.16 l 0.41,-0.03 z" style="color:#000000;fill:#000000" id="path2318" inkscape:connector-curvature="0"/>
        <path d="m 475.89,769.144 c -4.53,0.1 -9.05,0.21 -13.58,0.35 -8.73,0.42 -17.48,0.54 -26.2,1.22 l -0.01,-0.07 c 8.73,-0.68 17.42,-1.9 26.18,-2.23 4.53,-0.18 9.07,-0.34 13.61,-0.17 v 0.9 z" style="color:#000000;fill:#000000" id="path2320" inkscape:connector-curvature="0"/>
      </g>
    </g>
    <path d="m 775.34,899.334 c 9.61,-3.52 19.23,-6.99 28.88,-10.41 15.64,-5.56 31.4,-10.74 47.2,-15.78 7.92,-2.51 15.87,-4.93 23.82,-7.35 l 0.02,0.08 c -7.95,2.42 -15.89,4.84 -23.81,7.35 -15.81,5.04 -31.57,10.22 -47.21,15.78 -9.64,3.42 -19.29,6.84 -28.86,10.46 l -0.04,-0.13 z" style="color:#000000;fill:#000000" id="path8319" inkscape:connector-curvature="0"/>
    <g id="g3808" transform="matrix(0.3127409,-0.07682812,0.07682812,0.3127409,252.27246,668.86215)" inkscape:export-filename="C:\Users\kmacphail1f\Pictures\sketching.png" inkscape:export-xdpi="237.68489" inkscape:export-ydpi="237.68489">
      <path inkscape:connector-curvature="0" id="path11543" style="color:#000000;fill:#999999;fill-rule:evenodd" d="m 774.48,554.124 11.49,5.834 26.87,14.318 15.2,4.42 8.84,4.95 10.43,3.535 6.54,0.884 5.66,-0.53 1.59,1.237 -0.18,17.501 -0.35,15.911 1.23,31.64 0.18,29.17 3.89,36.06 1.24,19.45 -3.36,1.59 -11.32,-6.01 -18.91,-11.14 -18.74,-12.9 -22.63,-13.61 -14.49,-7.96 -3.01,-1.77 v -7.6 l -1.06,-88.211"/>
      <path inkscape:connector-curvature="0" id="path10570" style="color:#000000;fill:#faf9f6;fill-rule:evenodd" d="m 955.14,573.216 -19.97,-5.304 -59.76,-14.142 -19.44,-4.066 -53.21,2.475 -27.75,1.945 29.52,15.733 10.96,5.834 15.91,4.773 7.95,4.242 8.84,2.652 6.9,1.414 4.95,-0.707 0.53,0.707 13.61,-0.707 23.69,-5.834 30.22,-5.303 18.92,-2.652"/>
      <path inkscape:connector-curvature="0" id="path11541" style="color:#000000;fill:#faf9f6;fill-rule:evenodd" d="m 995.62,638.974 -9.54,-1.23 -25.46,-5.84 -8.66,-2.3 -0.71,18.21 8.66,-1.24 24.22,-4.95"/>
      <path inkscape:connector-curvature="0" id="path9599" style="fill:#cccccc;fill-rule:evenodd" d="m 866.26,739.524 71,-23 47.25,-18.5 13.75,-4.25 -1,-30.5 -1.5,-24.75 -20.25,4.5 -22.25,4 2.25,-73.998 -28,4.25 -51.5,9.75 -1.75,0.5 -13.75,0.5 v 35.248 l 1,33 -0.25,24.25 1,16.25 1.75,22.75 2,17.5"/>
      <path inkscape:connector-curvature="0" id="path2180" style="color:#000000;fill:#000000" d="m 777.39,687.564 c 4.23,2.04 8.31,4.38 12.37,6.73 8.61,5.02 16.98,10.41 25.35,15.83 9.8,6.44 19.69,12.75 29.74,18.82 7.69,4.34 15.19,9.08 23.17,12.89 l -0.03,0.06 c -8.22,-3.38 -16.34,-6.96 -23.86,-11.77 -10.05,-6.08 -19.89,-12.49 -29.71,-18.95 -8.33,-5.4 -16.69,-10.78 -25.34,-15.68 -4.06,-2.26 -8.13,-4.52 -12.34,-6.48 l 0.65,-1.45 z"/>
      <path inkscape:connector-curvature="0" id="path2182" style="color:#000000;fill:#000000" d="m 866.3,739.104 c -1.04,-5.5 -1.73,-11.05 -2.39,-16.61 -1.52,-12.4 -2.18,-24.89 -2.59,-37.37 -0.22,-10.64 0.01,-21.28 0.33,-31.91 h 0.06 c -0.31,10.63 -0.53,21.26 0.04,31.89 0.57,12.46 1.31,24.92 2.88,37.31 0.71,5.54 1.49,11.07 2.24,16.6 l -0.57,0.09 z"/>
      <path inkscape:connector-curvature="0" id="path2184" style="color:#000000;fill:#000000" d="m 774.34,553.317 c 4.06,1.833 8.02,3.892 11.98,5.934 8.38,4.327 16.53,9.082 24.63,13.897 1.69,0.901 3.37,1.801 5.05,2.702 l -0.03,0.059 -5.13,-2.553 c -8.54,-3.977 -16.95,-8.225 -25.25,-12.693 -3.94,-2.057 -7.91,-4.065 -11.85,-6.115 l 0.6,-1.231 z"/>
      <path inkscape:connector-curvature="0" id="path2186" style="color:#000000;fill:#000000" d="m 873.56,733.934 c -1.92,0.99 -3.75,2.14 -5.57,3.29 -0.76,0.59 -1.52,1.19 -2.24,1.82 -0.45,-2.23 4.17,-2.33 6.56,-3.03 8.27,-2.31 16.41,-5.06 24.55,-7.78 11.28,-3.87 22.6,-7.58 34.07,-10.84 6.94,-1.92 14,-3.33 21.01,-4.94 l 0.02,0.07 c -6.9,2.01 -13.66,4.4 -20.45,6.75 -11.28,3.78 -22.58,7.5 -33.83,11.39 -8.16,2.81 -16.32,5.66 -24.57,8.2 -2.93,0.8 -7.07,2.85 -9.59,0.53 1.15,-1.29 2.08,-2.32 4.08,-2.84 1.94,-0.96 3.87,-1.93 5.75,-3.01 l 0.21,0.39 z"/>
      <path inkscape:connector-curvature="0" id="path2188" style="color:#000000;fill:#000000" d="m 873.25,587.335 c 4.73,-1.54 9.61,-2.559 14.45,-3.652 10.86,-2.456 21.82,-4.409 32.79,-6.263 11.39,-1.952 22.9,-3.052 34.4,-4.112 l 0.01,0.066 c -11.42,1.613 -22.79,3.547 -34.16,5.487 -10.93,1.936 -21.84,4.028 -32.65,6.541 -4.83,1.111 -9.64,2.323 -14.51,3.212 l -0.33,-1.279 z"/>
      <path inkscape:connector-curvature="0" id="path2190" style="color:#000000;fill:#000000" d="m 771.83,553.315 c 5.19,-1.511 10.72,-1.562 16.09,-1.837 12.65,-0.534 25.3,-1.006 37.96,-1.413 12.05,-0.379 24.1,-0.425 36.16,-0.267 v 0.066 c -12.01,1.009 -24.03,1.915 -36.08,2.443 -12.62,0.572 -25.26,1.035 -37.87,1.86 -5.23,0.388 -10.45,0.836 -15.67,1.317 l -0.59,-2.169 z"/>
      <path inkscape:connector-curvature="0" id="path2192" inkscape:transform-center-x="-47.12797" style="color:#000000;fill:#000000" inkscape:transform-center-y="9.6440378" d="m 855.67,548.486 c 4.5,1.031 8.98,2.106 13.48,3.137 10.94,2.525 21.9,4.993 32.85,7.465 14.01,3.117 27.91,6.678 41.64,10.818 8.32,2.593 4.21,1.37 12.35,3.679 l -0.02,0.058 c -8.14,-2.309 -3.98,-1.23 -12.47,-3.22 -13.98,-3.122 -27.94,-6.321 -41.95,-9.338 -10.98,-2.392 -21.99,-4.678 -32.94,-7.226 -4.52,-1.1 -9.1,-2.131 -13.44,-3.826 l 0.5,-1.547 z"/>
      <path inkscape:connector-curvature="0" id="path2194" style="color:#000000;fill:#000000" d="m 776.17,553.452 c -0.3,4.063 -0.46,8.129 -0.61,12.195 -0.45,12.318 -0.61,24.636 -0.72,36.95 -0.15,15.907 0.1,31.797 0.5,47.677 0.29,9.62 0.72,19.24 -0.14,28.87 -0.41,3.22 -0.21,1.71 -0.61,4.56 h -0.06 c -0.17,-2.84 -0.05,-1.33 -0.37,-4.53 -0.87,-9.57 -0.88,-19.19 -1.02,-28.8 -0.22,-15.91 -0.39,-31.81 -0.4,-47.726 -0.01,-12.329 -0.01,-24.659 0.15,-36.993 0.1,-4.138 0.1,-8.298 0.66,-12.424 l 2.62,0.221 z"/>
      <path inkscape:connector-curvature="0" id="path2200" style="color:#000000;fill:#000000" d="m 956.76,574.3 c 0.07,4.606 0.08,9.21 0.01,13.816 -0.36,13.318 -1.06,26.628 -1.63,39.928 -0.7,16.33 -1.12,32.67 -1.81,49 -0.38,6.09 -0.68,12.18 -0.81,18.28 h -0.07 c 0.13,-6.1 0.1,-12.2 0,-18.3 0.07,-16.35 0.53,-32.7 1.13,-49.04 0.47,-13.29 1.03,-26.582 1.17,-39.884 -0.01,-4.646 -0.13,-9.292 -0.06,-13.936 l 2.07,0.136 z"/>
      <path inkscape:connector-curvature="0" id="path2202" style="color:#000000;fill:#000000" d="m 902.29,673.844 c 0.19,4.62 0.22,9.26 0.32,13.89 0.12,7.63 0.35,15.25 0.38,22.88 -0.05,4.59 0,2.36 -0.17,6.71 h -0.08 c -0.32,-4.34 -0.18,-2.11 -0.41,-6.69 -0.28,-7.63 -0.37,-15.25 -0.63,-22.87 -0.16,-4.63 -0.33,-9.25 -0.54,-13.87 l 1.13,-0.05 z"/>
      <path inkscape:connector-curvature="0" id="path2204" style="color:#000000;fill:#000000" d="m 899.54,674.724 c 2.99,-1.03 6.12,-1.13 9.24,-1.27 2.91,-0.13 1.45,-0.05 4.36,-0.22 l 0.02,0.06 c -2.79,0.86 -1.4,0.41 -4.15,1.34 -2.96,1.05 -5.92,2.2 -9.09,2.37 l -0.38,-2.28 z"/>
      <path inkscape:connector-curvature="0" id="path2206" style="color:#000000;fill:#000000" d="m 924.57,671.544 c -0.28,5.12 -0.34,10.26 -0.34,15.39 -0.01,5.61 -0.03,11.21 0.21,16.81 l -0.07,0.01 c -0.24,-5.61 -0.7,-11.2 -0.94,-16.8 -0.19,-5.16 -0.39,-10.32 -0.25,-15.48 l 1.39,0.07 z"/>
      <path inkscape:connector-curvature="0" id="path2208" style="color:#000000;fill:#000000" d="m 955.24,645.654 c 3.48,-1.03 7.1,-1.54 10.68,-2.13 6.73,-1.11 13.46,-2.17 20.24,-2.95 5.11,-0.51 2.56,-0.25 7.66,-0.78 l 0.01,0.07 c -4.98,1.21 -2.49,0.59 -7.46,1.88 -6.62,1.67 -13.31,3.06 -20.03,4.25 -3.57,0.62 -7.15,1.33 -10.76,1.57 l -0.34,-1.91 z"/>
      <path inkscape:connector-curvature="0" id="path2210" style="color:#000000;fill:#000000" d="m 997.02,639.064 c 0.75,4.33 1.03,8.74 1.28,13.13 0.4,7.65 0.03,15.3 -0.45,22.93 -0.07,1.25 -0.14,2.49 -0.21,3.73 h -0.07 c -0.06,-1.24 -0.12,-2.48 -0.19,-3.72 -0.52,-7.59 -1.02,-15.18 -1.52,-22.77 -0.35,-4.3 -0.71,-8.6 -1.41,-12.86 l 2.57,-0.44 z"/>
      <path inkscape:connector-curvature="0" id="path2212" style="color:#000000;fill:#000000" d="m 943.86,709.514 c 4.04,-2.17 8.43,-3.61 12.77,-5.09 7.46,-2.47 15.02,-4.66 22.59,-6.79 6.13,-1.72 12.36,-3.04 18.68,-3.82 0.63,-0.08 1.27,-0.15 1.9,-0.23 l 0.02,0.06 c -0.59,0.25 -1.18,0.49 -1.77,0.74 -5.89,2.38 -11.98,4.19 -18.09,5.89 -7.52,2.11 -15.02,4.29 -22.4,6.86 -4.19,1.46 -8.39,2.9 -12.44,4.71 l -1.26,-2.33 z"/>
      <path inkscape:connector-curvature="0" id="path2214" style="color:#000000;fill:#000000" d="m 955.89,630.054 c 3.81,0.47 7.55,1.36 11.29,2.21 5.96,1.37 11.91,2.79 17.76,4.59 2.03,0.69 4.04,1.43 6.05,2.17 l -0.03,0.17 c -2.16,-0.11 -4.31,-0.24 -6.44,-0.56 -6.03,-0.99 -11.95,-2.5 -17.9,-3.88 -3.68,-0.84 -7.36,-1.64 -11.07,-2.36 l 0.34,-2.34 z"/>
      <path inkscape:connector-curvature="0" id="path2226" inkscape:transform-center-x="17.46081" style="color:#000000;fill:#000000" inkscape:transform-center-y="11.210845" d="m 827.24,577.634 c 2.88,1.838 5.87,3.466 8.93,4.972 4.24,2.098 8.76,3.452 13.37,4.437 2.98,0.631 6.01,0.677 9.04,0.484 1.85,-0.571 1.92,-0.103 3.01,0.941 -0.2,2.315 -0.3,4.632 -0.36,6.955 -0.01,6.349 -0.21,12.691 -0.42,19.041 -0.21,5.33 -0.13,2.66 -0.22,8.01 h -0.07 c 0.09,-5.35 0.07,-2.68 0.05,-8.01 -0.02,-6.35 -0.1,-12.691 -0.39,-19.028 -0.11,-2.263 -0.25,-4.527 -0.19,-6.793 -0.44,0.128 -0.87,0.413 -1.32,0.382 -3.16,0.049 -6.29,-0.103 -9.39,-0.804 -4.68,-1.067 -9.27,-2.539 -13.6,-4.628 -3.09,-1.548 -6.13,-3.191 -8.94,-5.203 l 0.5,-0.756 z"/>
      <path inkscape:connector-curvature="0" id="path2308" style="color:#000000;fill:#000000" d="m 913.15,674.484 c 0.05,4.17 0.14,8.34 0.19,12.51 0.11,7.17 0.02,14.35 -0.33,21.51 h -0.08 c -0.25,-7.16 -0.28,-14.33 -0.37,-21.5 -0.07,-4.17 -0.1,-8.34 -0.16,-12.51 l 0.75,-0.01 z"/>
      <path inkscape:connector-curvature="0" id="path2310" style="color:#000000;fill:#000000" d="m 914.31,673.144 c 2.01,-0.81 4.11,-1.35 6.2,-1.92 l 0.04,0.11 c -1.94,0.95 -3.87,1.94 -5.93,2.65 l -0.31,-0.84 z"/>
      <path inkscape:connector-curvature="0" id="path8323" style="color:#000000;fill:#000000" d="m 879.49,633.824 c 0,2.81 -0.15,5.61 -0.25,8.42 -0.19,4.87 -0.31,9.74 -0.42,14.61 -0.02,3.2 -0.27,6.41 0.02,9.6 0.32,1.59 1.04,1.4 2.48,1.16 3.41,-0.8 6.76,-1.84 10.13,-2.79 4.5,-1.28 9.05,-2.34 13.64,-3.27 4.1,-0.84 8.23,-1.56 12.36,-2.3 3.25,-0.6 6.52,-1.16 9.76,-1.82 2.12,-0.42 4.19,-1.01 6.27,-1.6 0.85,-0.28 1.72,-0.41 2.6,-0.52 -0.62,0.44 -0.29,-0.89 -0.28,-1.23 -0.03,-2.73 0.11,-5.45 0.3,-8.18 0.28,-4 0.91,-7.97 1.67,-11.91 0.58,-2.88 1.35,-5.72 2.18,-8.54 0.11,-0.53 0.31,-1.04 0.48,-1.55 -2.21,0.21 -4.4,0.62 -6.58,0.97 -6.62,1.01 -13.26,1.94 -19.89,2.86 -4.4,0.5 -8.71,1.43 -13.01,2.43 l -0.01,-0.03 c 4.31,-1 8.6,-2.03 12.92,-2.96 6.57,-1.31 13.18,-2.36 19.78,-3.5 2.39,-0.45 4.81,-1.1 7.24,-1.16 1.44,0.8 0.81,2.03 0.37,3.34 -0.89,2.76 -1.7,5.54 -2.27,8.38 -0.78,3.88 -1.4,7.79 -1.64,11.75 -0.15,2.7 -0.25,5.39 -0.14,8.09 0.01,1.12 0.24,2.2 -0.95,2.7 -0.82,0.06 -1.62,0.15 -2.41,0.4 -2.11,0.55 -4.23,1.1 -6.37,1.53 -3.26,0.63 -6.54,1.18 -9.82,1.72 -4.12,0.7 -8.25,1.38 -12.36,2.15 -4.56,0.9 -9.11,1.88 -13.58,3.17 -3.41,0.97 -6.78,2.07 -10.22,2.93 -1.9,0.29 -3.42,0.08 -3.52,-2.17 -0.09,-3.22 0.2,-6.44 0.27,-9.66 0.18,-4.87 0.37,-9.75 0.51,-14.62 0.09,-2.8 0.15,-5.61 0.29,-8.41 l 0.45,0.01 z"/>
      <path inkscape:connector-curvature="0" id="path8325" style="fill:#d6e7d6;fill-rule:evenodd" d="m 879.26,633.774 -0.75,21.63 -0.13,11.62 1.76,1.63 8.24,-2.5 22.76,-5.25 19.87,-3.75 5.75,-1.5 -0.38,-7.5 1.63,-11.13 2.75,-12.12 0.25,-1.63 -3.25,0.13 -12.25,2.12 -15.63,2.63 -30.62,5.62 z"/>
    </g>
    <g id="g9142" transform="translate(0,2)" inkscape:export-filename="C:\Users\kmacphail1f\Pictures\sketching.png" inkscape:export-xdpi="237.68489" inkscape:export-ydpi="237.68489">
      <path id="path9096" style="fill-rule:evenodd;fill:#ffba04" d="m611.27 794.59l0.5 2.75 39.37 101 12-6.25-39.37-101.12-9.75-7-2.75 10.62z"/>
      <g id="g5171" transform="matrix(.12163 -.056387 .071583 .18419 522.1 797.94)">
        <rect id="rect5097" style="stroke-opacity:0;fill-rule:evenodd;fill:#f5cf00" height="550.05" width="50.683" y="185.93" x="645.94"/>
        <rect id="rect5099" style="stroke-opacity:0;fill-rule:evenodd;fill:#cf9400" height="552.48" width="43.098" y="183.85" x="685.94"/>
        <rect id="rect5101" style="stroke-opacity:0;fill-rule:evenodd;fill:url(#linearGradient9117)" height="552.48" width="43.098" y="185.52" x="625.52"/>
        <path id="path5111" style="fill-rule:evenodd;fill:#ffedbd;stroke-opacity:0" d="m629.51 184.96c43.1-172.63 40.34-171.59 42.41-171.25 2.07 0.349 2.76 4.155 2.76 4.155s3.1 4.843 2.07 0.692c-1.03-4.152 0 3.805-1.03-1.384-1.04-5.189-1.04-1.384-1.04-1.384l51.37 167.09h1.04s4.14 2.08 2.41 0.69c-1.72-1.38-1.03 0.35-1.03 0.35l-98.96 1.04z"/>
        <path id="path5115" style="fill-rule:evenodd;fill:url(#linearGradient9119);stroke-opacity:0" d="m682.93 49.583c-0.96 0.199-1.92 0.399-2.88 0.598-3 0.621-5.11 3.069-7.26 4.89-2.34 1.973-0.96 9.014-0.6 11.376 1.44 9.507 5.93 17.214 9.45 25.946 2.57 6.384 4.71 12.967 6.96 19.457 2.18 6.29 5.06 12.7 6.46 19.16 0.92 4.24 1.72 8.22 1.89 12.58 0.15 3.54 0.98 7.01 1.1 10.57 0.11 3.46 0.69 6.52 1.19 9.88 0.48 3.22 0.95 6.46 1.79 9.48 0.47 1.7 0.89 1.87 1.69 3.1 0.31 0.47 4.11 0.69 4.78 0.8 2.42 0.39 4.46 1.45 6.76 2.19 1.47 0.47 2.71 1.37 4.28 2 1.13 0.45 1.82 0.35 2.98 0.5 1.23 0.15 0.12-3.04 0-3.6-0.93-4.27-1.51-8.63-1.99-12.97-0.46-4.12-2.13-8.06-3.58-11.77-1.56-4-3.37-7.95-4.87-11.98-1.37-3.67-1.87-7.5-3.09-11.18-1.27-3.84-1.6-7.98-2.78-11.87-1.08-3.57-1.4-7.51-2.29-11.08-0.76-3.04-1.06-5.95-1.49-8.98-0.37-2.576-0.8-5.117-1.39-7.684-0.42-1.821-0.52-3.692-0.8-5.488-0.28-1.864-1.09-3.71-1.79-5.489-0.87-2.245-1.04-4.673-1.59-6.985-0.55-2.304-1.29-4.518-1.79-6.786-0.56-2.548-1.6-4.686-2.78-6.786-0.91-1.612-1.56-3.298-2.29-4.99-0.42-0.958-0.78-1.57-1.2-2.395-0.67-1.355-1.02-1.606-1.98-2.694-0.64-0.721-1.93 0.133-2.89 0.2z"/>
        <path id="path5125" style="fill-rule:evenodd;fill:url(#linearGradient9121);stroke-opacity:0" d="m664.83 56.069v2.595c0 3.294-2.04 7.605-2.88 10.777-0.69 2.596-1.39 4.839-1.89 7.485-0.42 2.182-1.33 4.49-2.09 6.486-1.1 2.873-1.77 5.638-2.59 8.682-0.83 3.096-1.71 5.781-2.48 8.886-0.58 2.31-1.21 4.37-1.6 6.68-0.43 2.61-1.28 5.35-1.79 7.98-0.52 2.73-1.17 5.3-1.89 7.99-0.91 3.42-1.64 6.71-2.88 10.08-1.4 3.8-2.61 7.78-3.78 11.57-0.89 2.88-2.32 5.82-3.38 8.59-0.88 2.29-2.53 4.29-3.48 6.48-1.22 2.82-2.33 5.67-3.38 8.58-0.79 2.19-1.11 4.58-1.59 6.69-0.3 1.28-0.1 2.78-0.1 4.09 0 1.13 0.12 2.23 0.19 3.19 0.12 1.42 3.26 1.38 4.18 1.6 2.3 0.55 4.86 0.4 7.26 0.4h1.1c2.51 0 4.57-1.53 6.56-2.99 4.51-3.34 5.6-11.5 7.66-16.27 2.81-6.51 4.68-13.21 5.97-20.16 1.22-6.62 0.49-13.93 0.49-20.65 0-5.63-0.49-11.23-0.49-16.87 0-4.49 0.61-8.841 0.89-13.271 0.35-5.55 1.15-10.669 2.69-15.867 1.06-3.614 2.94-6.611 3.68-10.279 0.44-2.251-0.03-4.647-0.4-6.786-0.29-1.662-0.97-3.177-1.49-4.49-0.34-0.855-1.66-0.799-2.49-1.198z"/>
        <path id="path5135" style="fill-rule:evenodd;stroke:#000000;stroke-width:1px;fill:#000000" d="m673.98 11.163c0.63 4.02 1.89 8.646 3.38 12.773 1.45 3.996 3.23 8.323 3.58 12.574 0.21 2.544 1.12 4.744 1.39 7.285 0.16 1.435 0.66 2.977 1 4.191 0.5 1.79 0.43 3.238 0.3 4.989-0.07 0.914-3.69 0.499-4.48 0.499-2.52 0-4.99-0.039-7.46-0.199-1.98-0.129-3.83-0.162-5.77 0-1.04 0.087-1.94 0.116-2.98 0.199-0.65 0.052 0.87-3.023 1.29-3.991 0.94-2.145 1.59-4.341 2.19-6.487 0.6-2.147 1.03-4.253 1.49-6.386 0.36-1.637 0.81-3.131 1.1-4.79 0.29-1.712 0.59-3.415 0.79-5.09 0.21-1.767 0.45-3.52 0.6-5.289 0.13-1.604 0.47-3.202 0.8-4.79 0.7-3.375 3.05-4.908 1.49-8.2826-0.19-0.4006 0.49-1.4152 0.59-1.6964 0.28-0.7826 1.16 6.154 1.4 6.985 0.21 0.783 0.26 1.415 0.39 2.096"/>
        <path id="path5137" style="fill-rule:evenodd;stroke:#000000;stroke-width:1px;fill:#666666" d="m674.87 29.724c1.16 4.14 1.42 9.094 2.39 13.572 0.81 3.732 2.23 7.39 3.18 11.077 0.56 2.127-0.83 1.197-1.79 1.995-1.18 0.989-7.87-3.35-9.15-3.991-1.41-0.708-0.49-4.793-0.29-6.287 0.43-3.351 1.48-6.86 2.48-10.179 0.6-1.956 0.38-4.767 0.7-6.786 0.26-1.662 0.18-3.422 0.4-5.089 0.2-1.546 0.39-2.898 0.39-4.491 0-1.166 0.16-2.195 0.3-3.293 0.33-2.528 0.74 5.047 1 7.584 0.2 1.99 0.33 3.861 0.39 5.888z"/>
        <path id="path5139" style="fill-rule:evenodd;fill:#ffe6a0;stroke-opacity:0" d="m685.32 173.52c0.09-0.21-0.13-0.68 0.3-0.69 1.79-0.08 3.47 0.43 5.27 0.49 3.85 0.14 7.61 0.66 11.43 1 3.76 0.34 13.02-0.37 16.12 1.7 0.27 0.18 5.49 3.41 4.07 4.69-1.07 0.96-2.22 1.45-3.48 2.29-0.95 0.64-2.33 1.55-3.08 2.5-2.1 2.67-3.93 5.66-6.17 8.28-2.83 3.32-5.09 5.9-7.36 9.68-1.66 2.78-1.29 4.93-3.48 2-1.86-2.5-2.39-5.48-3.97-8.28-3.3-5.84-7.41-12.4-11.34-17.07-0.1 0-7.34 14.85-8.76 16.57-2.17 2.64-5.36 3.93-8.25 4.69-1.47 0.38-3.7 0-5.27 0-2.02 0-2.11-1.74-2.89-3.6-1.73-4.18-3.5-7.85-5.37-11.97-0.44-0.99-0.83-1.87-1.19-2.9-0.28-0.81-0.3-1.78-0.5-2.69-0.55-2.57-1.04-0.7-2.09-1.4-0.93-0.62-2.68 6.91-2.78 7.29-0.96 3.57-2.31 6.99-3.58 10.38-1.1 2.93-2.26 2.94-5.37 3.29-2.43 0.27-3.73-0.82-5.27-2.2-2.51-2.23-2.18-6.8-2.49-9.78-0.3-2.94 0.28-5.99 0.6-8.88 0.2-1.8 0.29-3.59 0.1-5.19-0.28-2.3 3.21-1.62 4.97-1.69 4.41-0.17 8.72-0.6 13.13-0.6 3.85 0 7.72 0.11 11.54 0.4 3.35 0.25 7.31 0.79 10.54 1.69 2.96 0.84 6.14 1.4 9.15 1.9 1.68 0.28 3.89-1.17 5.47-1.9"/>
        <path id="path5141" style="fill-rule:evenodd;fill:#ffe6a0;stroke-opacity:0" d="m709.19 179.61c4.76 0.8 8.48 5.97 10.24 9.98 1.01 2.3 1.83 4.55 3.08 6.59 0.66 1.06 1.04 2.17 1.79 3.49 0.64 1.12 1.12 1.21 1.99 2.1 0.65 0.64 1.03 0.51 1.79 0.89 0.38 0.19 0.68-4.97 0.7-5.58 0.07-2.06 0.4-3.96 0.4-6.09 0-1.86-0.27-3.49-0.7-5.19-0.32-1.27-0.65-2.53-1.09-3.79-0.59-1.69-0.69-1.89-1.99-3.2-1.67-1.67-4.21-3.24-5.77-4.49-0.7-0.56-5.16 1.13-6.27 1.3-2.19 0.34-3.7 0.03-5.57 0.6-0.57 0.17-1.02 0.27-1.49 0.4"/>
        <path id="path5143" style="fill-rule:evenodd;fill:#ffe6a0;stroke-opacity:0" d="m676.86 188.19c-1.99 0.61-8.39 14.56-9.54 16.87-1.71 3.41-4.25 5.57-5.08 9.38-0.61 2.82 0.12 4.38-1.79 0.4-2.79-5.85-3.61-13.62-5.17-19.86-0.5-2.02-0.51-4.02-0.59-6.09-0.08-1.83 0.24-0.37 0.79-1.2"/>
        <path id="path5145" style="fill-rule:evenodd;fill:#ffe6a0;stroke-opacity:0" d="m627.33 184.9c-0.01-0.43 0.69 6.31 1.2 13.67 0.37 5.46 0.1 11.06 0.5 16.47 0.18 2.46 0.83 1.83 2.68 2.39 2.46 0.75 4.43-7.35 5.17-8.98 1.4-3.08 3.16-5.94 5.07-8.68 1.01-1.44 2.28-2.38 3.29-3.89 1.18-1.79 1.73-4.3 2.58-6.19 1.24-2.74-0.03-2.85-0.59-4.09-0.84-1.84-12.8-1.78-15.22-2.2-1.61-0.27-1.55-0.51-2.69-0.89"/>
        <path id="path5147" style="fill-rule:evenodd;fill:#ffe6a0;stroke-opacity:0" d="m626.74 738.77c-1.78-0.31 0.67 3.87 2.09 4.99 1.3 1.03 3.54 0.97 5.17 1.3 2.46 0.49 4.96 2.09 7.26 3.09 1.92 0.84 4.15 0.95 6.17 1.3 1.77 0.31 3.53 0.42 5.37 0.5 1.71 0.06 3.49 0.26 5.17 0.39 2.81 0.23 5.66 0.7 8.45 1.2 5.99 1.08 11.9 2.43 17.9 3.39 4.43 0.72 8.95 0.5 13.43 0.5 2.93 0 5.95-0.84 8.75-1.59 2.25-0.61 3.27-3.12 3.98-5.09 0.84-2.33 1.87-2.95 4.08-4.19 1.56-0.88 3.61-0.93 5.37-1.3 1.53-0.32 2.51-0.93 3.68-1.6 1.37-0.78 1.61-2.01 2.29-3.19 0.74-1.3 0.57-3.66 0.79-5.09 0.39-2.56-0.34-3.83-2.09-5.49-3.83-3.63-6.66-6.52-11.63-8.68-4.94-2.15-7.99-3.25-13.43-3.79-7.17-0.72-14.16-2.1-21.38-2.6-5.98-0.41-11.91-1.95-17.71 0.2-3.47 1.29-6.84 3.12-10.44 3.79-2.13 0.4-3.96 1.5-6.07 2.2-1.95 0.65-3.99 3.11-5.86 4.09-1.71 0.89-3.44 2.26-4.68 3.19-1.66 1.25-3.07 2.03-4.57 3.3-1.16 0.98-0.94 4.08-1.1 5.49-0.34 2.94 0.91-1.08-0.99 3.69z"/>
        <path id="path5149" style="fill-rule:evenodd;fill:#030200;stroke-opacity:0" d="m673.29 740.85c1.1 1.26 3.58 1.69 5.45 1.8 2.18 0.13 4.32 0.36 5.63-1.62 1.1-1.66 1.45-4.12 1.45-6.04 0-2.21-1.33-3.94-2.69-5.58-1.26-1.53-2.81-2.6-4.65-3.32-1.96-0.75-3.66-0.76-5.75-0.76-2.18 0-4.85 0.94-6.63 2.12-1.39 0.94-2.13 4.05-2.62 5.56-0.52 1.63 0.1 3.44 0.82 4.82 0.9 1.72 3.47 2.59 5.1 3.31 1.88 0.84 3.82 0.71 5.84 0.71 0.25 0 0.51-0.02 0.76-0.03"/>
        <path id="path5151" style="fill-rule:evenodd;fill:url(#radialGradient9123);stroke-opacity:0" d="m682.66 739.22c0.23-1.06 0.15-3.41 0.15-5.05 0-2.49-2.35-3.53-4.39-3.97-1.24-0.26-2.97-0.04-4.18 0.09-2.27 0.26-3.86-0.94-5.04 1.9-0.13 0.3-0.26 0.61-0.39 0.91-0.42 1.02-1 1.96-1.68 2.75-0.72 0.85 2.3 2.42 2.74 2.69 1.24 0.76 2.55 1.38 3.83 2.07 1.17 0.64 2.22 1.1 3.54 1.21 0.89 0.08 1.71-0.05 2.59 0.12 0.75 0.15 1.05 0.04 1.77-0.32 1.75-0.88 0.84-2.04 1.71-3.43 0.18-0.29 0.31-0.76 0.47-1.07"/>
      </g>
    </g>
  </g>
  <metadata id="metadata174">
    <rdf:RDF>
      <cc:Work>
        <dc:format>image/svg+xml</dc:format>
        <dc:type rdf:resource="http://purl.org/dc/dcmitype/StillImage"/>
        <cc:license rdf:resource="http://creativecommons.org/licenses/publicdomain/"/>
        <dc:publisher>
          <cc:Agent rdf:about="http://openclipart.org/">
            <dc:title>Openclipart</dc:title>
          </cc:Agent>
        </dc:publisher>
        <dc:title/>
        <dc:date>2010-04-30T18:13:32</dc:date>
        <dc:description/>
        <dc:source>https://openclipart.org/detail/58231/sketchpad-with-still-life-by-eady</dc:source>
        <dc:creator>
          <cc:Agent>
            <dc:title>eady</dc:title>
          </cc:Agent>
        </dc:creator>
        <dc:subject>
          <rdf:Bag>
            <rdf:li>drawing</rdf:li>
            <rdf:li>sketch</rdf:li>
          </rdf:Bag>
        </dc:subject>
      </cc:Work>
      <cc:License rdf:about="http://creativecommons.org/licenses/publicdomain/">
        <cc:permits rdf:resource="http://creativecommons.org/ns#Reproduction"/>
        <cc:permits rdf:resource="http://creativecommons.org/ns#Distribution"/>
        <cc:permits rdf:resource="http://creativecommons.org/ns#DerivativeWorks"/>
      </cc:License>
    </rdf:RDF>
  </metadata>
</svg>
